<svg width="25" height="25" viewBox="0 0 25 25" fill="none" xmlns="http://www.w3.org/2000/svg">
<g clip-path="url(#clip0_218_112)">
<path d="M12.5 0.330383C19.2209 0.330545 24.6689 5.77934 24.6689 12.5003C24.6688 19.2211 19.2208 24.6691 12.5 24.6693C5.77904 24.6693 0.33024 19.2212 0.330078 12.5003C0.330078 5.77924 5.77894 0.330383 12.5 0.330383ZM12.5 2.07355C9.73461 2.07355 7.08238 3.17183 5.12695 5.12726C3.17153 7.08269 2.07324 9.73491 2.07324 12.5003C2.07332 15.2656 3.1716 17.918 5.12695 19.8734C7.08235 21.8286 9.73475 22.9271 12.5 22.9271C15.2653 22.927 17.9177 21.8287 19.873 19.8734C21.8284 17.918 22.9267 15.2656 22.9268 12.5003C22.9268 9.73505 21.8283 7.08266 19.873 5.12726C17.9177 3.1719 15.2653 2.07363 12.5 2.07355ZM18.1787 8.48761L19.1982 9.50812L19.3047 9.61456L19.1982 9.72003L12.0469 16.8714C11.7934 17.1248 11.4493 17.2679 11.0908 17.2679C10.7324 17.2678 10.3882 17.1248 10.1348 16.8714L6.38379 13.1185L6.27832 13.012L6.38379 12.9056L7.4043 11.8851L7.51074 11.7796L11.0918 15.3607L17.9668 8.48761L18.0732 8.38116L18.1787 8.48761Z" fill="#00A73D" stroke="#00A73D" stroke-width="0.3"/>
</g>
<defs>
<clipPath id="clip0_218_112">
<rect width="25" height="25" fill="white"/>
</clipPath>
</defs>
</svg>
