<svg width="53" height="56" viewBox="0 0 53 56" fill="none" xmlns="http://www.w3.org/2000/svg">
<path d="M38.5655 2.625C38.5655 1.92881 38.842 1.26113 39.3343 0.768844C39.8266 0.276561 40.4943 0 41.1905 0H49.9405C50.6367 0 51.3044 0.276561 51.7966 0.768844C52.2889 1.26113 52.5655 1.92881 52.5655 2.625V11.375C52.5655 12.0712 52.2889 12.7389 51.7966 13.2312C51.3044 13.7234 50.6367 14 49.9405 14C49.2443 14 48.5766 13.7234 48.0843 13.2312C47.592 12.7389 47.3155 12.0712 47.3155 11.375V8.96L31.6705 24.605C31.1783 25.0966 30.5111 25.3727 29.8155 25.3727C29.1199 25.3727 28.4527 25.0966 27.9605 24.605L19.3155 15.96L4.54548 30.73C4.30516 30.9879 4.01536 31.1948 3.69336 31.3382C3.37136 31.4817 3.02377 31.5589 2.67131 31.5651C2.31885 31.5713 1.96875 31.5065 1.64189 31.3744C1.31503 31.2424 1.01811 31.0459 0.768845 30.7966C0.519579 30.5474 0.323073 30.2505 0.19105 29.9236C0.059026 29.5967 -0.00581022 29.2466 0.000408524 28.8942C0.00662727 28.5417 0.0837743 28.1941 0.227246 27.8721C0.370718 27.5501 0.577576 27.2603 0.835479 27.02L17.4605 10.395C17.9527 9.90342 18.6199 9.62731 19.3155 9.62731C20.0111 9.62731 20.6783 9.90342 21.1705 10.395L29.8155 19.04L43.6055 5.25H41.1905C40.4943 5.25 39.8266 4.97344 39.3343 4.48116C38.842 3.98887 38.5655 3.32119 38.5655 2.625ZM2.69048 42C3.38667 42 4.05435 42.2766 4.54663 42.7688C5.03892 43.2611 5.31548 43.9288 5.31548 44.625V53.375C5.31548 54.0712 5.03892 54.7389 4.54663 55.2312C4.05435 55.7234 3.38667 56 2.69048 56C1.99429 56 1.32661 55.7234 0.834324 55.2312C0.342041 54.7389 0.0654793 54.0712 0.0654793 53.375V44.625C0.0654793 43.9288 0.342041 43.2611 0.834324 42.7688C1.32661 42.2766 1.99429 42 2.69048 42ZM19.3155 34.125C19.3155 33.4288 19.0389 32.7611 18.5466 32.2688C18.0543 31.7766 17.3867 31.5 16.6905 31.5C15.9943 31.5 15.3266 31.7766 14.8343 32.2688C14.342 32.7611 14.0655 33.4288 14.0655 34.125V53.375C14.0655 54.0712 14.342 54.7389 14.8343 55.2312C15.3266 55.7234 15.9943 56 16.6905 56C17.3867 56 18.0543 55.7234 18.5466 55.2312C19.0389 54.7389 19.3155 54.0712 19.3155 53.375V34.125ZM30.6905 38.5C31.3867 38.5 32.0543 38.7766 32.5466 39.2688C33.0389 39.7611 33.3155 40.4288 33.3155 41.125V53.375C33.3155 54.0712 33.0389 54.7389 32.5466 55.2312C32.0543 55.7234 31.3867 56 30.6905 56C29.9943 56 29.3266 55.7234 28.8343 55.2312C28.342 54.7389 28.0655 54.0712 28.0655 53.375V41.125C28.0655 40.4288 28.342 39.7611 28.8343 39.2688C29.3266 38.7766 29.9943 38.5 30.6905 38.5ZM47.3155 27.125C47.3155 26.4288 47.0389 25.7611 46.5466 25.2688C46.0544 24.7766 45.3867 24.5 44.6905 24.5C43.9943 24.5 43.3266 24.7766 42.8343 25.2688C42.342 25.7611 42.0655 26.4288 42.0655 27.125V53.375C42.0655 54.0712 42.342 54.7389 42.8343 55.2312C43.3266 55.7234 43.9943 56 44.6905 56C45.3867 56 46.0544 55.7234 46.5466 55.2312C47.0389 54.7389 47.3155 54.0712 47.3155 53.375V27.125Z" fill="#3EA34B"/>
</svg>
