<svg width="34" height="20" viewBox="0 0 34 20" fill="none" xmlns="http://www.w3.org/2000/svg">
<path d="M33.2097 1.03333C33.0405 0.626084 32.7169 0.302458 32.3097 0.133333C32.1093 0.0479316 31.8941 0.00263331 31.6763 0H23.343C22.901 0 22.477 0.175595 22.1645 0.488156C21.8519 0.800716 21.6763 1.22464 21.6763 1.66667C21.6763 2.10869 21.8519 2.53262 22.1645 2.84518C22.477 3.15774 22.901 3.33333 23.343 3.33333H27.6597L18.343 12.65L12.8597 7.15C12.7047 6.99379 12.5204 6.8698 12.3173 6.78518C12.1142 6.70057 11.8964 6.657 11.6763 6.657C11.4563 6.657 11.2385 6.70057 11.0354 6.78518C10.8323 6.8698 10.6479 6.99379 10.493 7.15L0.492997 17.15C0.336783 17.3049 0.212793 17.4893 0.128178 17.6924C0.0435637 17.8955 0 18.1133 0 18.3333C0 18.5534 0.0435637 18.7712 0.128178 18.9743C0.212793 19.1774 0.336783 19.3617 0.492997 19.5167C0.647936 19.6729 0.832271 19.7969 1.03537 19.8815C1.23847 19.9661 1.45631 20.0097 1.67633 20.0097C1.89635 20.0097 2.11419 19.9661 2.31729 19.8815C2.52039 19.7969 2.70473 19.6729 2.85966 19.5167L11.6763 10.6833L17.1597 16.1833C17.3146 16.3395 17.4989 16.4635 17.702 16.5482C17.9051 16.6328 18.123 16.6763 18.343 16.6763C18.563 16.6763 18.7809 16.6328 18.984 16.5482C19.1871 16.4635 19.3714 16.3395 19.5263 16.1833L30.0097 5.68333V10C30.0097 10.442 30.1853 10.866 30.4978 11.1785C30.8104 11.4911 31.2343 11.6667 31.6763 11.6667C32.1184 11.6667 32.5423 11.4911 32.8548 11.1785C33.1674 10.866 33.343 10.442 33.343 10V1.66667C33.3404 1.44887 33.2951 1.2337 33.2097 1.03333Z" fill="#00A73D"/>
</svg>
