<svg width="69" height="44" viewBox="0 0 69 44" fill="none" xmlns="http://www.w3.org/2000/svg">
<path d="M31.4679 30.0629C34.3997 28.1111 36.6255 25.2676 37.8163 21.9529C39.007 18.6382 39.0995 15.0283 38.0799 11.657C37.0603 8.28573 34.9829 5.33205 32.1548 3.23275C29.3268 1.13345 25.8982 0 22.3761 0C18.854 0 15.4254 1.13345 12.5973 3.23275C9.76925 5.33205 7.69183 8.28573 6.67227 11.657C5.6527 15.0283 5.74513 18.6382 6.93588 21.9529C8.12663 25.2676 10.3525 28.1111 13.2843 30.0629C7.98094 32.0175 3.45176 35.6346 0.372566 40.3742C0.210734 40.6148 0.0983255 40.8851 0.0418742 41.1694C-0.0145772 41.4538 -0.0139451 41.7465 0.0437335 42.0306C0.101412 42.3147 0.214987 42.5845 0.377856 42.8243C0.540725 43.0642 0.74964 43.2692 0.992456 43.4276C1.23527 43.586 1.50715 43.6945 1.79228 43.7469C2.07741 43.7992 2.3701 43.7944 2.65335 43.7327C2.9366 43.671 3.20476 43.5535 3.44223 43.3872C3.6797 43.221 3.88174 43.0091 4.03663 42.7641C6.02285 39.7092 8.74073 37.1989 11.9434 35.4611C15.1462 33.7232 18.7323 32.813 22.3761 32.813C26.0199 32.813 29.606 33.7232 32.8087 35.4611C36.0114 37.1989 38.7293 39.7092 40.7155 42.7641C41.0364 43.2409 41.532 43.5724 42.0952 43.6867C42.6585 43.8011 43.2441 43.6891 43.7255 43.3752C44.2069 43.0612 44.5454 42.5704 44.6678 42.0088C44.7902 41.4472 44.6867 40.8601 44.3796 40.3742C41.3004 35.6346 36.7712 32.0175 31.4679 30.0629ZM10.3448 16.4129C10.3448 14.0333 11.0505 11.7072 12.3725 9.7287C13.6945 7.75017 15.5735 6.2081 17.7719 5.29748C19.9703 4.38687 22.3894 4.14861 24.7233 4.61283C27.0571 5.07706 29.2009 6.22293 30.8835 7.90553C32.5661 9.58813 33.7119 11.7319 34.1762 14.0657C34.6404 16.3996 34.4021 18.8186 33.4915 21.0171C32.5809 23.2155 31.0388 25.0945 29.0603 26.4165C27.0818 27.7385 24.7556 28.4442 22.3761 28.4442C19.1863 28.4405 16.1282 27.1718 13.8727 24.9163C11.6172 22.6608 10.3485 19.6027 10.3448 16.4129ZM67.805 43.4012C67.3191 43.718 66.7272 43.8289 66.1596 43.7094C65.5919 43.59 65.095 43.2499 64.778 42.7641C62.7942 39.7074 60.0767 37.1959 56.8733 35.4589C53.6699 33.7218 50.0826 32.8143 46.4386 32.8192C45.8584 32.8192 45.302 32.5887 44.8918 32.1785C44.4815 31.7682 44.2511 31.2118 44.2511 30.6317C44.2511 30.0515 44.4815 29.4951 44.8918 29.0849C45.302 28.6746 45.8584 28.4442 46.4386 28.4442C48.2104 28.4425 49.9599 28.0495 51.5622 27.2933C53.1645 26.5371 54.5801 25.4363 55.7076 24.0696C56.8352 22.7029 57.647 21.1041 58.085 19.3873C58.5231 17.6705 58.5765 15.8782 58.2415 14.1383C57.9065 12.3985 57.1914 10.7541 56.1473 9.32266C55.1031 7.89123 53.7557 6.70809 52.2013 5.85776C50.6469 5.00744 48.9239 4.51093 47.1553 4.40371C45.3868 4.29649 43.6164 4.58121 41.9706 5.23752C41.7023 5.35351 41.4134 5.41455 41.1211 5.41702C40.8288 5.41949 40.5389 5.36335 40.2687 5.2519C39.9984 5.14045 39.7532 4.97597 39.5476 4.76816C39.342 4.56035 39.1801 4.31344 39.0716 4.04202C38.963 3.77059 38.9099 3.48016 38.9155 3.18788C38.9211 2.8956 38.9852 2.6074 39.104 2.34031C39.2229 2.07323 39.394 1.83267 39.6074 1.63286C39.8208 1.43304 40.0721 1.27803 40.3464 1.17697C44.1129 -0.325157 48.3022 -0.379212 52.1062 1.02523C55.9102 2.42967 59.0593 5.1931 60.9461 8.7824C62.8328 12.3717 63.3235 16.5326 62.3234 20.4623C61.3233 24.392 58.9034 27.8121 55.5304 30.0629C60.8337 32.0175 65.3629 35.6346 68.4421 40.3742C68.7589 40.8601 68.8698 41.452 68.7504 42.0196C68.6309 42.5873 68.2908 43.0842 67.805 43.4012Z" fill="#3EA34B"/>
</svg>
