<svg width="24" height="30" viewBox="0 0 24 30" fill="none" xmlns="http://www.w3.org/2000/svg">
<path d="M11.8252 11.8252H11.8386M11.8252 17.2109H11.8386M11.8252 6.43945H11.8386M17.2109 11.8252H17.2243M17.2109 17.2109H17.2243M17.2109 6.43945H17.2243M6.43945 11.8252H6.45292M6.43945 17.2109H6.45292M6.43945 6.43945H6.45292M7.78588 27.9823V23.943C7.78588 23.5859 7.92774 23.2435 8.18024 22.991C8.43275 22.7384 8.77522 22.5966 9.13231 22.5966H14.518C14.8751 22.5966 15.2176 22.7384 15.4701 22.991C15.7226 23.2435 15.8645 23.5859 15.8645 23.943V27.9823" stroke="#66DB7E" stroke-width="2.10745" stroke-linecap="round" stroke-linejoin="round"/>
<path d="M19.9037 1.05371H3.74657C2.25934 1.05371 1.05371 2.25934 1.05371 3.74657V25.2894C1.05371 26.7766 2.25934 27.9823 3.74657 27.9823H19.9037C21.3909 27.9823 22.5966 26.7766 22.5966 25.2894V3.74657C22.5966 2.25934 21.3909 1.05371 19.9037 1.05371Z" stroke="#66DB7E" stroke-width="2.10745" stroke-linecap="round" stroke-linejoin="round"/>
</svg>
