<svg width="24" height="34" viewBox="0 0 24 34" fill="none" xmlns="http://www.w3.org/2000/svg">
<path d="M0 11.665C0 14.835 1.275 17.71 3.33333 19.815V31.6667C3.33228 31.9511 3.4042 32.2311 3.54222 32.4799C3.68024 32.7286 3.87975 32.9378 4.12169 33.0875C4.36363 33.2371 4.6399 33.3222 4.9241 33.3346C5.20831 33.347 5.49094 33.2863 5.745 33.1583L11.6667 30.1967L17.5883 33.1567C17.8417 33.2852 18.1239 33.3461 18.4077 33.3336C18.6916 33.321 18.9673 33.2354 19.2083 33.085C19.7 32.78 20 32.245 20 31.6667V19.8167C22.1364 17.6413 23.3334 14.7141 23.3333 11.665C23.3333 5.23333 18.1 0 11.6667 0C5.23333 0 0 5.23333 0 11.665ZM12.4117 26.8417C12.1801 26.7258 11.9248 26.6655 11.6658 26.6655C11.4069 26.6655 11.1515 26.7258 10.92 26.8417L6.66667 28.97V22.1917C8.185 22.915 9.87667 23.3333 11.6667 23.3333C13.4567 23.3333 15.1483 22.9167 16.6667 22.1917V28.9683L12.4117 26.8417ZM11.6667 3.33333C16.26 3.33333 20 7.07 20 11.665C19.9978 13.8746 19.1192 15.9931 17.5569 17.5557C15.9946 19.1183 13.8763 19.9974 11.6667 20C7.07167 20 3.33333 16.2617 3.33333 11.665C3.33598 9.45583 4.21486 7.33792 5.77713 5.77596C7.33941 4.21399 9.45749 3.33554 11.6667 3.33333Z" fill="#00A73D"/>
</svg>
