<svg width="34" height="34" viewBox="0 0 34 34" fill="none" xmlns="http://www.w3.org/2000/svg">
<path d="M16.6667 30C20.2029 30 23.5943 28.5952 26.0948 26.0948C28.5952 23.5943 30 20.2029 30 16.6667C30 13.1304 28.5952 9.73906 26.0948 7.23858C23.5943 4.73809 20.2029 3.33333 16.6667 3.33333C13.1304 3.33333 9.73906 4.73809 7.23858 7.23858C4.73809 9.73906 3.33333 13.1304 3.33333 16.6667C3.33333 20.2029 4.73809 23.5943 7.23858 26.0948C9.73906 28.5952 13.1304 30 16.6667 30ZM16.6667 33.3333C7.46167 33.3333 0 25.8717 0 16.6667C0 7.46167 7.46167 0 16.6667 0C25.8717 0 33.3333 7.46167 33.3333 16.6667C33.3333 25.8717 25.8717 33.3333 16.6667 33.3333ZM16.6667 23.3333C18.4348 23.3333 20.1305 22.631 21.3807 21.3807C22.631 20.1305 23.3333 18.4348 23.3333 16.6667C23.3333 14.8986 22.631 13.2029 21.3807 11.9526C20.1305 10.7024 18.4348 10 16.6667 10C14.8986 10 13.2029 10.7024 11.9526 11.9526C10.7024 13.2029 10 14.8986 10 16.6667C10 18.4348 10.7024 20.1305 11.9526 21.3807C13.2029 22.631 14.8986 23.3333 16.6667 23.3333ZM16.6667 26.6667C14.0145 26.6667 11.471 25.6131 9.5956 23.7377C7.72024 21.8624 6.66667 19.3188 6.66667 16.6667C6.66667 14.0145 7.72024 11.471 9.5956 9.5956C11.471 7.72024 14.0145 6.66667 16.6667 6.66667C19.3188 6.66667 21.8624 7.72024 23.7377 9.5956C25.6131 11.471 26.6667 14.0145 26.6667 16.6667C26.6667 19.3188 25.6131 21.8624 23.7377 23.7377C21.8624 25.6131 19.3188 26.6667 16.6667 26.6667ZM16.6667 20C15.7826 20 14.9348 19.6488 14.3096 19.0237C13.6845 18.3986 13.3333 17.5507 13.3333 16.6667C13.3333 15.7826 13.6845 14.9348 14.3096 14.3096C14.9348 13.6845 15.7826 13.3333 16.6667 13.3333C17.5507 13.3333 18.3986 13.6845 19.0237 14.3096C19.6488 14.9348 20 15.7826 20 16.6667C20 17.5507 19.6488 18.3986 19.0237 19.0237C18.3986 19.6488 17.5507 20 16.6667 20Z" fill="#00A73D"/>
</svg>
