<svg width="170" height="33" viewBox="0 0 170 33" fill="none" xmlns="http://www.w3.org/2000/svg">
<path d="M20.9186 15.2227H15.4251L16.2168 13.9116L19.3893 8.64242L21.0566 5.87857L24.595 0L19.4013 4.76441C18.9995 4.53665 18.5857 4.32736 18.1659 4.1427C16.6006 3.45943 14.8734 3.08394 13.0742 3.08394C5.85338 3.0901 0 9.09177 0 16.5031C0 20.3442 1.5773 23.8159 4.10217 26.2597C4.41403 26.5613 4.73788 26.8506 5.08573 27.1214L1.54131 33.0062L6.73499 28.2356L9.25986 25.9149L20.9186 15.2227ZM5.80541 23.4404C4.7019 22.2278 3.89226 20.7381 3.46645 19.0884C3.3645 18.6821 3.28053 18.2697 3.23255 17.845C3.17258 17.4079 3.1426 16.9586 3.1426 16.5031C3.1426 10.8769 7.58661 6.31561 13.0682 6.31561C13.8958 6.31561 14.6994 6.42026 15.4671 6.61724C15.9469 6.74035 16.4147 6.89424 16.8645 7.09121L5.22367 17.7773H10.7172L9.93156 19.0884L6.75298 24.3576C6.41113 24.0683 6.09927 23.7666 5.80541 23.4404Z" fill="#00A92A"/>
<path d="M22.0343 6.74609L20.331 9.56534C21.4345 10.778 22.2442 12.2615 22.67 13.9112C22.7719 14.3174 22.8559 14.7299 22.9039 15.1546C22.9639 15.5916 22.9939 16.041 22.9939 16.5027C22.9939 22.1289 18.5498 26.6901 13.0683 26.6901C12.2407 26.6901 11.437 26.5855 10.6634 26.3885L7.97656 28.8569C9.54186 29.5402 11.2691 29.9157 13.0683 29.9157C20.2831 29.9157 26.1364 23.914 26.1364 16.5088C26.1364 12.6554 24.5592 9.18985 22.0343 6.74609Z" fill="#00A92A"/>
<path d="M37.5492 9.72559C38.8027 9.72559 39.8582 10.1565 40.7158 11.0244C41.5734 11.8923 41.9992 12.9511 41.9992 14.213C41.9992 15.4749 41.5734 16.5336 40.7158 17.4016C39.8582 18.2695 38.8027 18.7004 37.5492 18.7004H35.2583V23.0893H32.6914V9.72559H37.5492ZM37.5492 16.232C38.095 16.232 38.5508 16.0412 38.9106 15.6472C39.2705 15.2594 39.4504 14.7793 39.4504 14.2068C39.4504 13.6221 39.2705 13.1358 38.9106 12.7541C38.5508 12.3725 38.095 12.1817 37.5492 12.1817H35.2583V16.2259H37.5492V16.232Z" fill="white"/>
<path d="M51.2531 21.889C50.2995 22.8616 49.1301 23.3479 47.7507 23.3479C46.3713 23.3479 45.2078 22.8616 44.2602 21.889C43.3127 20.9164 42.8389 19.7222 42.8389 18.3126C42.8389 16.903 43.3127 15.7088 44.2602 14.7362C45.2078 13.7636 46.3713 13.2773 47.7507 13.2773C49.1301 13.2773 50.2935 13.7636 51.2531 14.7362C52.2067 15.7088 52.6865 16.903 52.6865 18.3126C52.6865 19.7222 52.2067 20.9164 51.2531 21.889ZM45.9575 20.2024C46.4373 20.701 47.037 20.9472 47.7567 20.9472C48.4763 20.9472 49.0761 20.701 49.5619 20.2024C50.0476 19.7038 50.2875 19.0759 50.2875 18.3126C50.2875 17.5493 50.0476 16.9214 49.5619 16.4228C49.0761 15.9242 48.4763 15.678 47.7567 15.678C47.037 15.678 46.4373 15.9242 45.9575 16.4228C45.4777 16.9214 45.2438 17.5493 45.2438 18.3126C45.2438 19.0759 45.4777 19.7038 45.9575 20.2024Z" fill="white"/>
<path d="M64.6269 13.542H67.1758L64.2131 23.0831H61.9221L60.2069 17.2969L58.4917 23.0831H56.2007L53.25 13.542H55.7989L57.3822 19.4021L59.0794 13.542H61.3524L63.0436 19.4206L64.6269 13.542Z" fill="white"/>
<path d="M70.2648 19.3224C70.5887 20.5166 71.4643 21.1137 72.8917 21.1137C73.8092 21.1137 74.5049 20.7936 74.9787 20.1596L76.9159 21.3045C75.9983 22.6649 74.6429 23.3481 72.8557 23.3481C71.3144 23.3481 70.0789 22.868 69.1493 21.9139C68.2197 20.9598 67.752 19.7595 67.752 18.3067C67.752 16.8663 68.2137 15.6722 69.1313 14.7119C70.0489 13.7516 71.2304 13.2715 72.6698 13.2715C74.0371 13.2715 75.1586 13.7578 76.0462 14.7242C76.9339 15.6906 77.3777 16.8848 77.3777 18.3129C77.3777 18.633 77.3477 18.9654 77.2817 19.3224H70.2648ZM70.2288 17.4142H74.9787C74.8408 16.7678 74.5589 16.2816 74.1331 15.9615C73.7073 15.6414 73.2155 15.4813 72.6698 15.4813C72.022 15.4813 71.4883 15.6475 71.0685 15.9861C70.6427 16.3308 70.3608 16.8048 70.2288 17.4142Z" fill="white"/>
<path d="M81.5814 15.1798C81.8033 14.5704 82.1751 14.1087 82.6909 13.8071C83.2067 13.4993 83.7824 13.3516 84.4121 13.3516V16.1031C83.6805 16.0169 83.0268 16.1647 82.451 16.5586C81.8753 16.9526 81.5874 17.6112 81.5874 18.5222V23.0835H79.1885V13.5424H81.5874V15.1798H81.5814Z" fill="white"/>
<path d="M93.036 9.72559V12.2432H89.5156V23.0832H86.9487V12.2432H83.4463V9.72559H93.036Z" fill="white"/>
<path d="M95.1115 19.3224C95.4354 20.5166 96.311 21.1137 97.7383 21.1137C98.6559 21.1137 99.3516 20.7936 99.8254 20.1596L101.763 21.3045C100.845 22.6649 99.4896 23.3481 97.7024 23.3481C96.161 23.3481 94.9256 22.868 93.996 21.9139C93.0664 20.9598 92.5986 19.7595 92.5986 18.3067C92.5986 16.8663 93.0604 15.6722 93.978 14.7119C94.8956 13.7516 96.0771 13.2715 97.5164 13.2715C98.8838 13.2715 100.005 13.7578 100.893 14.7242C101.781 15.6906 102.224 16.8848 102.224 18.3129C102.224 18.633 102.194 18.9654 102.128 19.3224H95.1115ZM95.0755 17.4142H99.8254C99.6875 16.7678 99.4056 16.2816 98.9798 15.9615C98.554 15.6414 98.0622 15.4813 97.5164 15.4813C96.8687 15.4813 96.335 15.6475 95.9151 15.9861C95.4893 16.3308 95.2135 16.8048 95.0755 17.4142Z" fill="white"/>
<path d="M108.444 23.3543C107.041 23.3543 105.871 22.868 104.936 21.9016C104 20.9352 103.532 19.741 103.532 18.3129C103.532 16.891 104 15.6906 104.936 14.7242C105.871 13.7578 107.041 13.2715 108.444 13.2715C109.35 13.2715 110.177 13.4931 110.921 13.9424C111.665 14.3856 112.228 14.9889 112.612 15.7337L110.543 16.9771C110.357 16.5832 110.075 16.2692 109.697 16.0415C109.32 15.8137 108.894 15.6968 108.42 15.6968C107.7 15.6968 107.107 15.943 106.633 16.4293C106.159 16.9217 105.925 17.5434 105.925 18.3067C105.925 19.0577 106.159 19.6794 106.633 20.1657C107.107 20.6582 107.7 20.8982 108.42 20.8982C108.906 20.8982 109.338 20.7874 109.715 20.5658C110.093 20.3442 110.375 20.0365 110.561 19.6425L112.648 20.8613C112.24 21.6123 111.659 22.2155 110.915 22.6649C110.177 23.1265 109.35 23.3543 108.444 23.3543Z" fill="white"/>
<path d="M119.293 13.2712C120.312 13.2712 121.152 13.6221 121.817 14.3238C122.483 15.0255 122.813 15.992 122.813 17.2231V23.0832H120.414V17.5308C120.414 16.8968 120.246 16.4105 119.91 16.072C119.574 15.7334 119.131 15.5672 118.573 15.5672C117.955 15.5672 117.457 15.7642 117.086 16.1582C116.714 16.5521 116.528 17.143 116.528 17.931V23.0832H114.129V9.72559H116.528V14.6131C117.098 13.7205 118.027 13.2712 119.293 13.2712Z" fill="white"/>
<path d="M127.059 21.8216H133.381V23.0835H125.752V9.71973H133.285V10.9816H127.053V15.7153H132.817V16.9771H127.053V21.8216H127.059Z" fill="white"/>
<path d="M144.541 23.0832H143.054L139.522 17.377L135.989 23.0832H134.502L138.778 16.1951L134.778 9.72559H136.247L139.522 14.9948L142.796 9.72559H144.266L140.265 16.1951L144.541 23.0832Z" fill="white"/>
<path d="M151.054 9.71973C152.218 9.71973 153.195 10.1198 153.975 10.9201C154.755 11.7203 155.144 12.7236 155.144 13.9178C155.144 15.112 154.755 16.1154 153.975 16.9156C153.195 17.7158 152.218 18.1159 151.054 18.1159H147.708V23.0773H146.406V9.71973H151.054ZM151.054 16.8602C151.858 16.8602 152.524 16.5832 153.051 16.0292C153.579 15.4752 153.843 14.7734 153.843 13.9178C153.843 13.0684 153.579 12.3605 153.051 11.8065C152.524 11.2525 151.858 10.9755 151.054 10.9755H147.708V16.854H151.054V16.8602Z" fill="white"/>
<path d="M168.051 21.2983C166.75 22.6402 165.154 23.3111 163.271 23.3111C161.388 23.3111 159.793 22.6402 158.491 21.2983C157.19 19.9564 156.536 18.3251 156.536 16.4046C156.536 14.4841 157.19 12.8528 158.491 11.5109C159.793 10.169 161.388 9.49805 163.271 9.49805C165.154 9.49805 166.75 10.169 168.051 11.5109C169.352 12.8528 170.006 14.4841 170.006 16.4046C170 18.3251 169.352 19.9564 168.051 21.2983ZM159.403 20.3811C160.446 21.4706 161.736 22.0123 163.271 22.0123C164.806 22.0123 166.096 21.4706 167.139 20.3811C168.183 19.2916 168.699 17.9681 168.699 16.3984C168.699 14.8288 168.177 13.5053 167.139 12.4158C166.096 11.3263 164.806 10.7846 163.271 10.7846C161.736 10.7846 160.446 11.3263 159.403 12.4158C158.359 13.5053 157.844 14.8288 157.844 16.3984C157.844 17.9681 158.359 19.2977 159.403 20.3811Z" fill="white"/>
</svg>
