<svg width="49" height="62" viewBox="0 0 49 62" fill="none" xmlns="http://www.w3.org/2000/svg">
<path d="M39.2188 28.5399H28.9194L30.4036 26.0818L36.3516 16.203L39.4774 11.0213L46.1113 0L36.3741 8.93243C35.6207 8.50543 34.8449 8.11305 34.0578 7.76683C31.1232 6.48582 27.8849 5.78185 24.5117 5.78185C10.9741 5.79339 0 17.0455 0 30.9404C0 38.1417 2.95715 44.6506 7.69084 49.2322C8.27553 49.7977 8.8827 50.3401 9.53485 50.8479L2.88969 61.8808L12.6269 52.9368L17.3606 48.586L39.2188 28.5399ZM10.8841 43.9466C8.81524 41.6731 7.29731 38.8803 6.49899 35.7874C6.30784 35.0258 6.15042 34.2525 6.06047 33.4562C5.94803 32.6368 5.89181 31.7944 5.89181 30.9404C5.89181 20.3923 14.2236 11.8407 24.5005 11.8407C26.0522 11.8407 27.5589 12.0369 28.9981 12.4062C29.8976 12.637 30.7746 12.9255 31.6179 13.2948L9.79346 33.3293H20.0929L18.6199 35.7874L12.6607 45.6662C12.0198 45.1238 11.4351 44.5583 10.8841 43.9466Z" fill="#00A73D"/>
<path d="M41.3089 12.6483L38.1156 17.9339C40.1845 20.2074 41.7024 22.9887 42.5007 26.0816C42.6919 26.8433 42.8493 27.6165 42.9392 28.4128C43.0517 29.2322 43.1079 30.0747 43.1079 30.9402C43.1079 41.4883 34.7762 50.0399 24.4992 50.0399C22.9476 50.0399 21.4409 49.8437 19.9904 49.4744L14.9531 54.1022C17.8878 55.3832 21.126 56.0872 24.4992 56.0872C38.0257 56.0872 48.9997 44.8351 48.9997 30.9518C48.9997 23.7273 46.0426 17.23 41.3089 12.6483Z" fill="#00A73D"/>
</svg>
