<svg width="38" height="33" viewBox="0 0 38 33" fill="none" xmlns="http://www.w3.org/2000/svg">
<path d="M18.75 8.75001C20 3.81563 24.7211 1.2961 35 1.25001C35.1643 1.24939 35.3272 1.2813 35.4791 1.3439C35.631 1.4065 35.7691 1.49855 35.8853 1.61474C36.0015 1.73094 36.0935 1.86899 36.1561 2.02092C36.2187 2.17286 36.2506 2.33568 36.25 2.50001V25C36.25 25.3315 36.1183 25.6495 35.8839 25.8839C35.6495 26.1183 35.3315 26.25 35 26.25C25 26.25 21.1367 28.2664 18.75 31.25M18.75 8.75001C17.5 3.81563 12.7789 1.2961 2.50001 1.25001C2.33568 1.24939 2.17286 1.2813 2.02092 1.3439C1.86899 1.4065 1.73094 1.49855 1.61474 1.61474C1.49855 1.73094 1.4065 1.86899 1.3439 2.02092C1.2813 2.17286 1.24939 2.33568 1.25001 2.50001V24.8492C1.25001 25.6211 1.72813 26.25 2.50001 26.25C12.5 26.25 16.3774 28.2813 18.75 31.25M18.75 8.75001V31.25" stroke="#00A73D" stroke-width="2.5" stroke-linecap="round" stroke-linejoin="round"/>
</svg>
