<svg width="27" height="27" viewBox="0 0 27 27" fill="none" xmlns="http://www.w3.org/2000/svg">
<path d="M13.1277 0C10.5313 0 7.99317 0.769925 5.83434 2.21241C3.6755 3.6549 1.99289 5.70516 0.999291 8.10393C0.00568802 10.5027 -0.254284 13.1422 0.252251 15.6888C0.758785 18.2353 2.00907 20.5744 3.84501 22.4103C5.68095 24.2463 8.02008 25.4966 10.5666 26.0031C13.1131 26.5096 15.7527 26.2497 18.1514 25.2561C20.5502 24.2625 22.6005 22.5799 24.0429 20.421C25.4854 18.2622 26.2554 15.7241 26.2554 13.1277C26.2514 9.64723 24.867 6.31048 22.4059 3.84944C19.9449 1.38839 16.6081 0.00400897 13.1277 0ZM24.2357 13.1277C24.2366 14.1521 24.0951 15.1717 23.8154 16.1571H18.9544C19.2641 14.1494 19.2641 12.106 18.9544 10.0982H23.8154C24.0951 11.0837 24.2366 12.1033 24.2357 13.1277ZM9.84576 18.1768H16.4096C15.763 20.2957 14.6404 22.2386 13.1277 23.857C11.6157 22.2381 10.4932 20.2953 9.84576 18.1768ZM9.35348 16.1571C9.00668 14.1524 9.00668 12.103 9.35348 10.0982H16.912C17.2588 12.103 17.2588 14.1524 16.912 16.1571H9.35348ZM2.01965 13.1277C2.01875 12.1033 2.16022 11.0837 2.43999 10.0982H7.30101C6.99125 12.106 6.99125 14.1494 7.30101 16.1571H2.43999C2.16022 15.1717 2.01875 14.1521 2.01965 13.1277ZM16.4096 8.07857H9.84576C10.4924 5.95971 11.615 4.01677 13.1277 2.39833C14.6397 4.0173 15.7622 5.96006 16.4096 8.07857ZM23.0151 8.07857H18.5189C17.9521 5.99951 16.997 4.04648 15.704 2.32259C17.2663 2.6979 18.729 3.4066 19.9918 4.40012C21.2546 5.39363 22.2877 6.64845 23.0201 8.07857H23.0151ZM10.5514 2.32259C9.25835 4.04648 8.30325 5.99951 7.7365 8.07857H3.23522C3.96768 6.64845 5.00073 5.39363 6.26353 4.40012C7.52634 3.4066 8.98904 2.6979 10.5514 2.32259ZM3.23522 18.1768H7.7365C8.30325 20.2558 9.25835 22.2089 10.5514 23.9328C8.98904 23.5575 7.52634 22.8488 6.26353 21.8552C5.00073 20.8617 3.96768 19.6069 3.23522 18.1768ZM15.704 23.9328C16.997 22.2089 17.9521 20.2558 18.5189 18.1768H23.0201C22.2877 19.6069 21.2546 20.8617 19.9918 21.8552C18.729 22.8488 17.2663 23.5575 15.704 23.9328Z" fill="#66DB7E"/>
</svg>
