<svg width="33" height="33" viewBox="0 0 33 33" fill="none" xmlns="http://www.w3.org/2000/svg">
<path d="M16.25 0C13.0361 0 9.89429 0.953046 7.22199 2.73862C4.54969 4.52419 2.46689 7.06209 1.23696 10.0314C0.00704087 13.0007 -0.314763 16.268 0.312247 19.4202C0.939256 22.5724 2.48692 25.4679 4.75952 27.7405C7.03213 30.0131 9.9276 31.5608 13.0798 32.1878C16.232 32.8148 19.4993 32.493 22.4686 31.263C25.4379 30.0331 27.9758 27.9503 29.7614 25.278C31.547 22.6057 32.5 19.4639 32.5 16.25C32.495 11.9418 30.7814 7.81139 27.735 4.765C24.6886 1.7186 20.5583 0.00496247 16.25 0ZM30 16.25C30.0011 17.5181 29.826 18.7801 29.4797 20H23.4625C23.8459 17.5147 23.8459 14.9853 23.4625 12.5H29.4797C29.826 13.7199 30.0011 14.9819 30 16.25ZM12.1875 22.5H20.3125C19.5121 25.1228 18.1225 27.5279 16.25 29.5312C14.3784 27.5272 12.9889 25.1224 12.1875 22.5ZM11.5781 20C11.1489 17.5184 11.1489 14.9816 11.5781 12.5H20.9344C21.3637 14.9816 21.3637 17.5184 20.9344 20H11.5781ZM2.50001 16.25C2.4989 14.9819 2.67401 13.7199 3.02032 12.5H9.03751C8.65407 14.9853 8.65407 17.5147 9.03751 20H3.02032C2.67401 18.7801 2.4989 17.5181 2.50001 16.25ZM20.3125 10H12.1875C12.9879 7.37718 14.3775 4.97213 16.25 2.96875C18.1216 4.97279 19.5111 7.37762 20.3125 10ZM28.4891 10H22.9234C22.2219 7.42644 21.0396 5.00891 19.4391 2.875C21.373 3.33958 23.1836 4.21684 24.7467 5.44665C26.3099 6.67646 27.5886 8.22974 28.4953 10H28.4891ZM13.0609 2.875C11.4604 5.00891 10.2781 7.42644 9.57657 10H4.00469C4.91137 8.22974 6.19011 6.67646 7.75327 5.44665C9.31642 4.21684 11.127 3.33958 13.0609 2.875ZM4.00469 22.5H9.57657C10.2781 25.0736 11.4604 27.4911 13.0609 29.625C11.127 29.1604 9.31642 28.2832 7.75327 27.0534C6.19011 25.8235 4.91137 24.2703 4.00469 22.5ZM19.4391 29.625C21.0396 27.4911 22.2219 25.0736 22.9234 22.5H28.4953C27.5886 24.2703 26.3099 25.8235 24.7467 27.0534C23.1836 28.2832 21.373 29.1604 19.4391 29.625Z" fill="#00A73D"/>
</svg>
