<svg width="21" height="24" viewBox="0 0 21 24" fill="none" xmlns="http://www.w3.org/2000/svg">
<path d="M10.5 0C13.2848 0 15.9555 1.10625 17.9246 3.07538C19.8938 5.04451 21 7.71523 21 10.5C21 14.0863 19.0447 17.0217 16.9843 19.1275C15.955 20.1682 14.8317 21.1118 13.629 21.9462L13.132 22.2845L12.8987 22.4397L12.4588 22.7197L12.0668 22.9588L11.5815 23.2412C11.2521 23.4292 10.8793 23.5281 10.5 23.5281C10.1207 23.5281 9.74793 23.4292 9.4185 23.2412L8.93317 22.9588L8.3265 22.5855L8.1025 22.4397L7.62417 22.1212C6.32664 21.2433 5.11805 20.2406 4.01567 19.1275C1.95533 17.0205 0 14.0863 0 10.5C0 7.71523 1.10625 5.04451 3.07538 3.07538C5.04451 1.10625 7.71523 0 10.5 0ZM10.5 7C10.0404 7 9.58525 7.09053 9.16061 7.26642C8.73597 7.44231 8.35013 7.70012 8.02513 8.02513C7.70012 8.35013 7.44231 8.73597 7.26642 9.16061C7.09053 9.58525 7 10.0404 7 10.5C7 10.9596 7.09053 11.4148 7.26642 11.8394C7.44231 12.264 7.70012 12.6499 8.02513 12.9749C8.35013 13.2999 8.73597 13.5577 9.16061 13.7336C9.58525 13.9095 10.0404 14 10.5 14C11.4283 14 12.3185 13.6313 12.9749 12.9749C13.6313 12.3185 14 11.4283 14 10.5C14 9.57174 13.6313 8.6815 12.9749 8.02513C12.3185 7.36875 11.4283 7 10.5 7Z" fill="#00E165"/>
</svg>
