<svg width="170" height="33" viewBox="0 0 170 33" fill="none" xmlns="http://www.w3.org/2000/svg">
<g clip-path="url(#clip0_374_59)">
<path d="M20.9186 15.2227H15.4251L16.2168 13.9116L19.3893 8.64242L21.0566 5.87857L24.595 0L19.4013 4.76441C18.9995 4.53665 18.5857 4.32736 18.1659 4.1427C16.6006 3.45943 14.8734 3.08394 13.0742 3.08394C5.85338 3.0901 0 9.09177 0 16.5031C0 20.3442 1.5773 23.8159 4.10217 26.2597C4.41403 26.5613 4.73788 26.8506 5.08573 27.1214L1.54131 33.0062L6.73499 28.2356L9.25986 25.9149L20.9186 15.2227ZM5.80541 23.4404C4.7019 22.2278 3.89226 20.7381 3.46645 19.0884C3.3645 18.6821 3.28053 18.2697 3.23255 17.845C3.17258 17.4079 3.1426 16.9586 3.1426 16.5031C3.1426 10.8769 7.58661 6.31561 13.0682 6.31561C13.8958 6.31561 14.6994 6.42026 15.4671 6.61724C15.9469 6.74035 16.4147 6.89424 16.8645 7.09121L5.22367 17.7773H10.7172L9.93156 19.0884L6.75298 24.3576C6.41113 24.0683 6.09927 23.7666 5.80541 23.4404Z" fill="#3EA34B"/>
<path d="M22.0343 6.74651L20.331 9.56576C21.4345 10.7784 22.2442 12.2619 22.67 13.9116C22.7719 14.3179 22.8559 14.7303 22.9039 15.155C22.9639 15.5921 22.9939 16.0414 22.9939 16.5031C22.9939 22.1293 18.5498 26.6905 13.0683 26.6905C12.2407 26.6905 11.437 26.5859 10.6634 26.3889L7.97656 28.8573C9.54186 29.5406 11.2691 29.9161 13.0683 29.9161C20.2831 29.9161 26.1364 23.9144 26.1364 16.5092C26.1364 12.6559 24.5592 9.19027 22.0343 6.74651Z" fill="#3EA34B"/>
<path d="M37.5492 9.72579C38.8027 9.72579 39.8582 10.1567 40.7158 11.0246C41.5734 11.8926 41.9992 12.9513 41.9992 14.2132C41.9992 15.4751 41.5734 16.5339 40.7158 17.4018C39.8582 18.2697 38.8027 18.7006 37.5492 18.7006H35.2583V23.0895H32.6914V9.72579H37.5492ZM37.5492 16.2322C38.095 16.2322 38.5508 16.0414 38.9106 15.6474C39.2705 15.2596 39.4504 14.7795 39.4504 14.207C39.4504 13.6223 39.2705 13.136 38.9106 12.7543C38.5508 12.3727 38.095 12.1819 37.5492 12.1819H35.2583V16.2261H37.5492V16.2322Z" fill="black"/>
<path d="M51.2531 21.8892C50.2995 22.8618 49.1301 23.3481 47.7507 23.3481C46.3713 23.3481 45.2078 22.8618 44.2602 21.8892C43.3127 20.9166 42.8389 19.7224 42.8389 18.3128C42.8389 16.9032 43.3127 15.709 44.2602 14.7364C45.2078 13.7638 46.3713 13.2776 47.7507 13.2776C49.1301 13.2776 50.2935 13.7638 51.2531 14.7364C52.2067 15.709 52.6865 16.9032 52.6865 18.3128C52.6865 19.7224 52.2067 20.9166 51.2531 21.8892ZM45.9575 20.2026C46.4373 20.7012 47.037 20.9474 47.7567 20.9474C48.4763 20.9474 49.0761 20.7012 49.5619 20.2026C50.0476 19.704 50.2875 19.0761 50.2875 18.3128C50.2875 17.5495 50.0476 16.9217 49.5619 16.4231C49.0761 15.9245 48.4763 15.6782 47.7567 15.6782C47.037 15.6782 46.4373 15.9245 45.9575 16.4231C45.4777 16.9217 45.2438 17.5495 45.2438 18.3128C45.2438 19.0761 45.4777 19.704 45.9575 20.2026Z" fill="black"/>
<path d="M64.6269 13.5422H67.1758L64.2131 23.0834H61.9221L60.2069 17.2971L58.4917 23.0834H56.2007L53.25 13.5422H55.7989L57.3822 19.4023L59.0794 13.5422H61.3524L63.0436 19.4208L64.6269 13.5422Z" fill="black"/>
<path d="M70.2648 19.3223C70.5887 20.5165 71.4643 21.1136 72.8917 21.1136C73.8092 21.1136 74.5049 20.7935 74.9787 20.1595L76.9159 21.3044C75.9983 22.6648 74.6429 23.3481 72.8557 23.3481C71.3144 23.3481 70.0789 22.8679 69.1493 21.9138C68.2197 20.9597 67.752 19.7594 67.752 18.3067C67.752 16.8663 68.2137 15.6721 69.1313 14.7118C70.0489 13.7515 71.2304 13.2714 72.6698 13.2714C74.0371 13.2714 75.1586 13.7577 76.0462 14.7241C76.9339 15.6905 77.3777 16.8847 77.3777 18.3128C77.3777 18.6329 77.3477 18.9653 77.2817 19.3223H70.2648ZM70.2288 17.4141H74.9787C74.8408 16.7678 74.5589 16.2815 74.1331 15.9614C73.7073 15.6413 73.2155 15.4812 72.6698 15.4812C72.022 15.4812 71.4883 15.6474 71.0685 15.986C70.6427 16.3307 70.3608 16.8047 70.2288 17.4141Z" fill="black"/>
<path d="M81.5814 15.1796C81.8033 14.5702 82.1751 14.1086 82.6909 13.8069C83.2067 13.4992 83.7824 13.3514 84.4121 13.3514V16.103C83.6805 16.0168 83.0268 16.1645 82.451 16.5585C81.8753 16.9524 81.5874 17.6111 81.5874 18.5221V23.0834H79.1885V13.5422H81.5874V15.1796H81.5814Z" fill="black"/>
<path d="M93.036 9.72579V12.2434H89.5156V23.0834H86.9487V12.2434H83.4463V9.72579H93.036Z" fill="black"/>
<path d="M95.1115 19.3223C95.4354 20.5165 96.311 21.1136 97.7383 21.1136C98.6559 21.1136 99.3516 20.7935 99.8254 20.1595L101.763 21.3044C100.845 22.6648 99.4896 23.3481 97.7024 23.3481C96.161 23.3481 94.9256 22.8679 93.996 21.9138C93.0664 20.9597 92.5986 19.7594 92.5986 18.3067C92.5986 16.8663 93.0604 15.6721 93.978 14.7118C94.8956 13.7515 96.0771 13.2714 97.5164 13.2714C98.8838 13.2714 100.005 13.7577 100.893 14.7241C101.781 15.6905 102.224 16.8847 102.224 18.3128C102.224 18.6329 102.194 18.9653 102.128 19.3223H95.1115ZM95.0755 17.4141H99.8254C99.6875 16.7678 99.4056 16.2815 98.9798 15.9614C98.554 15.6413 98.0622 15.4812 97.5164 15.4812C96.8687 15.4812 96.335 15.6474 95.9151 15.986C95.4893 16.3307 95.2135 16.8047 95.0755 17.4141Z" fill="black"/>
<path d="M108.444 23.3542C107.041 23.3542 105.871 22.8679 104.936 21.9015C104 20.9351 103.532 19.7409 103.532 18.3128C103.532 16.8909 104 15.6905 104.936 14.7241C105.871 13.7577 107.041 13.2714 108.444 13.2714C109.35 13.2714 110.177 13.493 110.921 13.9424C111.665 14.3856 112.228 14.9888 112.612 15.7336L110.543 16.9771C110.357 16.5831 110.075 16.2692 109.697 16.0414C109.32 15.8136 108.894 15.6967 108.42 15.6967C107.7 15.6967 107.107 15.9429 106.633 16.4292C106.159 16.9217 105.925 17.5434 105.925 18.3067C105.925 19.0576 106.159 19.6793 106.633 20.1656C107.107 20.6581 107.7 20.8981 108.42 20.8981C108.906 20.8981 109.338 20.7873 109.715 20.5657C110.093 20.3441 110.375 20.0364 110.561 19.6424L112.648 20.8612C112.24 21.6122 111.659 22.2154 110.915 22.6648C110.177 23.1265 109.35 23.3542 108.444 23.3542Z" fill="black"/>
<path d="M119.293 13.2714C120.312 13.2714 121.152 13.6223 121.817 14.324C122.483 15.0257 122.813 15.9922 122.813 17.2233V23.0834H120.414V17.5311C120.414 16.897 120.246 16.4107 119.91 16.0722C119.574 15.7336 119.131 15.5674 118.573 15.5674C117.955 15.5674 117.457 15.7644 117.086 16.1584C116.714 16.5523 116.528 17.1433 116.528 17.9312V23.0834H114.129V9.72579H116.528V14.6133C117.098 13.7208 118.027 13.2714 119.293 13.2714Z" fill="black"/>
<path d="M127.059 21.8215H133.381V23.0834H125.752V9.71964H133.285V10.9815H127.053V15.7152H132.817V16.9771H127.053V21.8215H127.059Z" fill="black"/>
<path d="M144.541 23.0834H143.054L139.522 17.3772L135.989 23.0834H134.502L138.778 16.1953L134.778 9.72579H136.247L139.522 14.995L142.796 9.72579H144.266L140.265 16.1953L144.541 23.0834Z" fill="black"/>
<path d="M151.054 9.71964C152.218 9.71964 153.195 10.1198 153.975 10.92C154.755 11.7202 155.144 12.7236 155.144 13.9177C155.144 15.1119 154.755 16.1153 153.975 16.9155C153.195 17.7157 152.218 18.1158 151.054 18.1158H147.708V23.0772H146.406V9.71964H151.054ZM151.054 16.8601C151.858 16.8601 152.524 16.5831 153.051 16.0291C153.579 15.4751 153.843 14.7734 153.843 13.9177C153.843 13.0683 153.579 12.3604 153.051 11.8064C152.524 11.2524 151.858 10.9754 151.054 10.9754H147.708V16.8539H151.054V16.8601Z" fill="black"/>
<path d="M168.051 21.2983C166.75 22.6402 165.154 23.3111 163.271 23.3111C161.388 23.3111 159.793 22.6402 158.491 21.2983C157.19 19.9563 156.536 18.3251 156.536 16.4046C156.536 14.484 157.19 12.8528 158.491 11.5109C159.793 10.169 161.388 9.49804 163.271 9.49804C165.154 9.49804 166.75 10.169 168.051 11.5109C169.352 12.8528 170.006 14.484 170.006 16.4046C170 18.3251 169.352 19.9563 168.051 21.2983ZM159.403 20.3811C160.446 21.4706 161.736 22.0123 163.271 22.0123C164.806 22.0123 166.096 21.4706 167.139 20.3811C168.183 19.2915 168.699 17.9681 168.699 16.3984C168.699 14.8288 168.177 13.5053 167.139 12.4158C166.096 11.3262 164.806 10.7846 163.271 10.7846C161.736 10.7846 160.446 11.3262 159.403 12.4158C158.359 13.5053 157.844 14.8288 157.844 16.3984C157.844 17.9681 158.359 19.2977 159.403 20.3811Z" fill="black"/>
</g>
<defs>
<clipPath id="clip0_374_59">
<rect width="170" height="33" fill="white"/>
</clipPath>
</defs>
</svg>
