<svg width="54" height="54" viewBox="0 0 54 54" fill="none" xmlns="http://www.w3.org/2000/svg">
<path d="M21.7139 33.3639V37.4289C21.7044 38.2854 21.4751 39.1252 21.0478 39.8676C20.6206 40.6101 20.0097 41.2303 19.2739 41.6689C17.7117 42.8259 16.441 44.3313 15.5626 46.0655C14.6842 47.7997 14.2224 49.7149 14.2139 51.6589M31.7139 33.3639V37.4289C31.7233 38.2854 31.9527 39.1252 32.3799 39.8676C32.8072 40.6101 33.418 41.2303 34.1539 41.6689C35.716 42.8259 36.9868 44.3313 37.8652 46.0655C38.7435 47.7997 39.2053 49.7149 39.2139 51.6589M41.7139 19.2139H45.4639C47.1215 19.2139 48.7112 18.5554 49.8833 17.3833C51.0554 16.2112 51.7139 14.6215 51.7139 12.9639C51.7139 11.3063 51.0554 9.71655 49.8833 8.54445C48.7112 7.37235 47.1215 6.71387 45.4639 6.71387H41.7139M6.71387 51.7139H46.7139" stroke="#8A2FF1" stroke-width="3.42857" stroke-linecap="round" stroke-linejoin="round"/>
<path d="M11.7139 19.2139C11.7139 23.1921 13.2942 27.0074 16.1073 29.8205C18.9203 32.6335 22.7356 34.2139 26.7139 34.2139C30.6921 34.2139 34.5074 32.6335 37.3205 29.8205C40.1335 27.0074 41.7139 23.1921 41.7139 19.2139V4.21387C41.7139 3.55083 41.4505 2.91494 40.9816 2.4461C40.5128 1.97726 39.8769 1.71387 39.2139 1.71387H14.2139C13.5508 1.71387 12.9149 1.97726 12.4461 2.4461C11.9773 2.91494 11.7139 3.55083 11.7139 4.21387V19.2139ZM11.7139 19.2139H7.96387C6.30626 19.2139 4.71655 18.5554 3.54445 17.3833C2.37235 16.2112 1.71387 14.6215 1.71387 12.9639C1.71387 11.3063 2.37235 9.71655 3.54445 8.54445C4.71655 7.37235 6.30626 6.71387 7.96387 6.71387H11.7139" stroke="#8A2FF1" stroke-width="3.42857" stroke-linecap="round" stroke-linejoin="round"/>
</svg>
