<svg width="59" height="38" viewBox="0 0 59 38" fill="none" xmlns="http://www.w3.org/2000/svg">
<path d="M26.9725 25.7682C29.4854 24.0952 31.3933 21.6579 32.414 18.8168C33.4346 15.9756 33.5138 12.8814 32.6399 9.99173C31.766 7.10205 29.9854 4.57032 27.5613 2.77093C25.1372 0.971532 22.1984 0 19.1795 0C16.1606 0 13.2218 0.971532 10.7977 2.77093C8.37365 4.57032 6.593 7.10205 5.71909 9.99173C4.84517 12.8814 4.9244 15.9756 5.94504 18.8168C6.96568 21.6579 8.87356 24.0952 11.3865 25.7682C6.84081 27.4436 2.95865 30.5439 0.319342 34.6065C0.180629 34.8127 0.084279 35.0443 0.0358922 35.2881C-0.0124947 35.5318 -0.011953 35.7827 0.0374859 36.0262C0.0869247 36.2697 0.184275 36.501 0.323877 36.7066C0.463479 36.9121 0.642548 37.0879 0.850676 37.2236C1.0588 37.3594 1.29184 37.4524 1.53624 37.4973C1.78063 37.5422 2.03152 37.5381 2.2743 37.4852C2.51709 37.4323 2.74693 37.3316 2.95048 37.1891C3.15402 37.0465 3.32721 36.865 3.45997 36.6549C5.16244 34.0365 7.49205 31.8847 10.2372 30.3952C12.9824 28.9056 16.0562 28.1254 19.1795 28.1254C22.3028 28.1254 25.3766 28.9056 28.1218 30.3952C30.8669 31.8847 33.1966 34.0365 34.899 36.6549C35.174 37.0637 35.5989 37.3477 36.0816 37.4458C36.5644 37.5438 37.0664 37.4478 37.479 37.1787C37.8916 36.9096 38.1818 36.4889 38.2867 36.0075C38.3916 35.5262 38.3029 35.0229 38.0397 34.6065C35.4003 30.5439 31.5182 27.4436 26.9725 25.7682ZM8.867 14.0682C8.867 12.0286 9.47182 10.0348 10.605 8.33889C11.7381 6.64301 13.3487 5.32123 15.2331 4.5407C17.1174 3.76017 19.1909 3.55595 21.1914 3.95386C23.1918 4.35177 25.0293 5.33394 26.4715 6.77617C27.9138 8.2184 28.8959 10.0559 29.2938 12.0563C29.6918 14.0568 29.4875 16.1303 28.707 18.0146C27.9265 19.899 26.6047 21.5096 24.9088 22.6427C23.2129 23.7759 21.2191 24.3807 19.1795 24.3807C16.4454 24.3776 13.8242 23.2901 11.8909 21.3568C9.95759 19.4235 8.8701 16.8023 8.867 14.0682ZM58.1186 37.201C57.7021 37.4726 57.1948 37.5676 56.7082 37.4652C56.2217 37.3628 55.7957 37.0714 55.524 36.6549C53.8236 34.0349 51.4943 31.8822 48.7485 30.3933C46.0028 28.9044 42.928 28.1265 39.8045 28.1307C39.3072 28.1307 38.8303 27.9332 38.4787 27.5815C38.127 27.2299 37.9295 26.753 37.9295 26.2557C37.9295 25.7584 38.127 25.2815 38.4787 24.9299C38.8303 24.5783 39.3072 24.3807 39.8045 24.3807C41.3232 24.3793 42.8228 24.0424 44.1962 23.3943C45.5696 22.7461 46.7829 21.8026 47.7494 20.6311C48.7159 19.4597 49.4117 18.0892 49.7872 16.6177C50.1626 15.1461 50.2084 13.6098 49.9213 12.1186C49.6342 10.6273 49.0212 9.21779 48.1262 7.99085C47.2313 6.76391 46.0763 5.74979 44.744 5.02094C43.4116 4.29209 41.9347 3.86651 40.4188 3.77461C38.9029 3.68271 37.3855 3.92675 35.9748 4.4893C35.7448 4.58873 35.4972 4.64105 35.2467 4.64316C34.9961 4.64528 34.7476 4.59715 34.516 4.50163C34.2843 4.4061 34.0742 4.26511 33.898 4.08699C33.7217 3.90888 33.583 3.69724 33.4899 3.46459C33.3969 3.23194 33.3514 2.98299 33.3561 2.73247C33.3609 2.48194 33.4159 2.23492 33.5177 2.00598C33.6196 1.77705 33.7663 1.57086 33.9492 1.39959C34.1321 1.22832 34.3475 1.09545 34.5826 1.00883C37.8111 -0.278706 41.4019 -0.325039 44.6625 0.878769C47.923 2.08258 50.6223 4.45123 52.2395 7.52778C53.8567 10.6043 54.2773 14.1708 53.42 17.5391C52.5628 20.9074 50.4886 23.839 47.5975 25.7682C52.1432 27.4436 56.0253 30.5439 58.6647 34.6065C58.9362 35.023 59.0313 35.5303 58.9289 36.0168C58.8265 36.5034 58.535 36.9293 58.1186 37.201Z" fill="#2060F3"/>
</svg>
