<svg width="108" height="108" viewBox="0 0 108 108" fill="none" xmlns="http://www.w3.org/2000/svg">
<circle cx="54" cy="54" r="54" fill="#ECECF0"/>
<path d="M46.4494 62H41.7406V47.4545H46.5985C48.0237 47.4545 49.2477 47.7457 50.2704 48.3281C51.2931 48.9058 52.0768 49.7367 52.6213 50.821C53.1705 51.9006 53.4451 53.1955 53.4451 54.706C53.4451 56.2211 53.1681 57.5232 52.6142 58.6122C52.0649 59.7012 51.2695 60.5393 50.2278 61.1264C49.1861 61.7088 47.9267 62 46.4494 62ZM43.9352 60.0824H46.3287C47.4366 60.0824 48.3575 59.8741 49.0914 59.4574C49.8253 59.036 50.3746 58.4276 50.7392 57.6321C51.1038 56.8319 51.286 55.8565 51.286 54.706C51.286 53.5649 51.1038 52.5966 50.7392 51.8011C50.3793 51.0057 49.8419 50.402 49.127 49.9901C48.412 49.5781 47.5242 49.3722 46.4636 49.3722H43.9352V60.0824ZM56.7228 47.4545L60.7711 59.3011H60.9345L64.9828 47.4545H67.3549L62.1206 62H59.585L54.3507 47.4545H56.7228Z" fill="#171717"/>
</svg>
