<svg width="108" height="108" viewBox="0 0 108 108" fill="none" xmlns="http://www.w3.org/2000/svg">
<circle cx="54" cy="54" r="54" fill="#ECECF0"/>
<path d="M41.6058 47.4545H44.2692L48.8999 58.7614H49.0703L53.701 47.4545H56.3643V62H54.2763V51.4744H54.1413L49.8516 61.9787H48.1186L43.8288 51.4673H43.6939V62H41.6058V47.4545ZM65.2085 47.4545H67.396V57.767C67.396 58.6998 67.2113 59.4976 66.842 60.1605C66.4774 60.8234 65.9637 61.33 65.3008 61.6804C64.6379 62.026 63.8614 62.1989 62.9712 62.1989C62.1521 62.1989 61.4158 62.0497 60.7624 61.7514C60.1138 61.4531 59.6 61.0199 59.2212 60.4517C58.8472 59.8788 58.6602 59.1828 58.6602 58.3636H60.8406C60.8406 58.7661 60.9329 59.1141 61.1175 59.4077C61.3069 59.7012 61.565 59.9309 61.8917 60.0966C62.2231 60.2576 62.6019 60.3381 63.0281 60.3381C63.4921 60.3381 63.8851 60.241 64.207 60.0469C64.5337 59.848 64.7823 59.5568 64.9528 59.1733C65.1232 58.7898 65.2085 58.321 65.2085 57.767V47.4545Z" fill="#171717"/>
</svg>
