<svg width="108" height="108" viewBox="0 0 108 108" fill="none" xmlns="http://www.w3.org/2000/svg">
<circle cx="54" cy="54" r="54" fill="#ECECF0"/>
<path d="M50.6992 51.2756C50.6235 50.6032 50.311 50.0824 49.7617 49.7131C49.2125 49.339 48.5212 49.152 47.6879 49.152C47.0913 49.152 46.5752 49.2467 46.1396 49.4361C45.704 49.6207 45.3654 49.8764 45.1239 50.2031C44.8872 50.5251 44.7688 50.892 44.7688 51.304C44.7688 51.6496 44.8493 51.9479 45.0103 52.1989C45.176 52.4498 45.3915 52.6605 45.6566 52.831C45.9265 52.9967 46.2153 53.1364 46.5231 53.25C46.8308 53.3589 47.1268 53.4489 47.4109 53.5199L48.8313 53.8892C49.2953 54.0028 49.7712 54.1567 50.2589 54.3509C50.7466 54.545 51.1987 54.8007 51.6154 55.1179C52.0321 55.4351 52.3683 55.8281 52.6239 56.2969C52.8844 56.7656 53.0146 57.3267 53.0146 57.9801C53.0146 58.804 52.8015 59.5355 52.3754 60.1747C51.954 60.8139 51.3408 61.3182 50.5359 61.6875C49.7357 62.0568 48.7674 62.2415 47.631 62.2415C46.542 62.2415 45.5998 62.0687 44.8043 61.723C44.0089 61.3774 43.3862 60.8873 42.9364 60.2528C42.4866 59.6136 42.238 58.8561 42.1907 57.9801H44.3924C44.435 58.5057 44.6055 58.9437 44.9038 59.294C45.2068 59.6397 45.5927 59.8977 46.0614 60.0682C46.5349 60.2339 47.0534 60.3168 47.6168 60.3168C48.2371 60.3168 48.7887 60.2197 49.2717 60.0256C49.7594 59.8267 50.1429 59.5521 50.4222 59.2017C50.7016 58.8466 50.8413 58.4323 50.8413 57.9588C50.8413 57.5279 50.7182 57.1752 50.4719 56.9006C50.2305 56.6259 49.9014 56.3987 49.4847 56.2188C49.0728 56.0388 48.6064 55.8802 48.0856 55.7429L46.3668 55.2741C45.2021 54.9569 44.2788 54.4905 43.5969 53.875C42.9199 53.2595 42.5813 52.4451 42.5813 51.4318C42.5813 50.5937 42.8086 49.8622 43.2631 49.2372C43.7177 48.6122 44.3332 48.1269 45.1097 47.7812C45.8862 47.4309 46.7622 47.2557 47.7376 47.2557C48.7224 47.2557 49.5913 47.4285 50.3441 47.7741C51.1017 48.1198 51.6983 48.5956 52.1339 49.2017C52.5695 49.803 52.7968 50.4943 52.8157 51.2756H50.6992ZM55.6371 62V47.4545H60.8217C61.9534 47.4545 62.8909 47.6605 63.6342 48.0724C64.3776 48.4844 64.9339 49.0478 65.3033 49.7628C65.6726 50.473 65.8572 51.2732 65.8572 52.1634C65.8572 53.0582 65.6702 53.8632 65.2962 54.5781C64.9268 55.2884 64.3681 55.8518 63.62 56.2685C62.8767 56.6804 61.9415 56.8864 60.8146 56.8864H57.2493V55.0256H60.6158C61.3307 55.0256 61.9107 54.9025 62.3558 54.6562C62.8009 54.4053 63.1276 54.0644 63.3359 53.6335C63.5443 53.2027 63.6484 52.7126 63.6484 52.1634C63.6484 51.6141 63.5443 51.1264 63.3359 50.7003C63.1276 50.2741 62.7985 49.9403 62.3487 49.6989C61.9036 49.4574 61.3165 49.3366 60.5874 49.3366H57.8317V62H55.6371Z" fill="#171717"/>
</svg>
