<svg width="57" height="62" viewBox="0 0 57 62" fill="none" xmlns="http://www.w3.org/2000/svg">
<path d="M38.8117 0.0649209C39.3744 0.205459 39.8582 0.563688 40.1568 1.06085C40.4555 1.55802 40.5444 2.15342 40.4042 2.71617L39.3104 7.09117C39.2464 7.37559 39.1262 7.64434 38.9569 7.88164C38.7875 8.11894 38.5725 8.31999 38.3243 8.47299C38.0762 8.62598 37.7999 8.72783 37.5118 8.77255C37.2238 8.81726 36.9297 8.80395 36.6468 8.73338C36.3639 8.66281 36.098 8.53641 35.8647 8.36162C35.6314 8.18682 35.4354 7.96715 35.2882 7.71552C35.141 7.46389 35.0455 7.18537 35.0075 6.89633C34.9695 6.60729 34.9896 6.31357 35.0667 6.03242L36.1604 1.65742C36.301 1.09475 36.6592 0.610914 37.1564 0.312287C37.6535 0.0136599 38.249 -0.0753157 38.8117 0.0649209ZM51.8623 5.01742C52.2724 5.42764 52.5028 5.98394 52.5028 6.56398C52.5028 7.14403 52.2724 7.70033 51.8623 8.11055L47.4873 12.4855C47.2855 12.6945 47.0442 12.8611 46.7773 12.9758C46.5104 13.0904 46.2233 13.1508 45.9329 13.1533C45.6424 13.1558 45.3544 13.1005 45.0855 12.9905C44.8167 12.8805 44.5725 12.7181 44.3671 12.5127C44.1617 12.3073 43.9993 12.063 43.8893 11.7942C43.7793 11.5254 43.7239 11.2373 43.7265 10.9469C43.729 10.6564 43.7893 10.3694 43.904 10.1025C44.0186 9.83559 44.1853 9.59421 44.3942 9.39242L48.7692 5.01742C49.1794 4.60733 49.7357 4.37695 50.3158 4.37695C50.8958 4.37695 51.4521 4.60733 51.8623 5.01742ZM18.7436 52.6437C19.8415 54.4716 21.5692 55.8357 23.6019 56.4797C25.6347 57.1237 27.8327 57.0032 29.7829 56.1409C31.7331 55.2786 33.3013 53.7339 34.1929 51.7969C35.0845 49.8599 35.2381 47.664 34.6248 45.6218L18.7436 52.6437ZM14.7186 54.4199L10.3523 56.3537C9.22264 56.8527 7.96848 56.9986 6.75441 56.7722C5.54033 56.5458 4.42306 55.9576 3.5492 55.0849L1.7992 53.3393C0.92534 52.4727 0.334969 51.3614 0.106094 50.1522C-0.122782 48.943 0.0206109 47.6928 0.517324 46.5668L17.4529 8.0318C17.8542 7.12181 18.4711 6.32323 19.2501 5.70506C20.0292 5.08689 20.9471 4.66772 21.9245 4.48379C22.9018 4.29986 23.9093 4.35669 24.8598 4.64938C25.8103 4.94207 26.6752 5.4618 27.3798 6.16367L50.7073 29.4212C51.4101 30.1221 51.9313 30.9838 52.2258 31.9317C52.5202 32.8796 52.5791 33.885 52.3972 34.8607C52.2153 35.8365 51.7982 36.7532 51.182 37.5313C50.5658 38.3094 49.7692 38.9255 48.8611 39.3262L38.6454 43.8412C39.7253 46.9533 39.5954 50.3578 38.2815 53.3786C36.9676 56.3994 34.5659 58.8157 31.553 60.1477C28.5402 61.4798 25.1366 61.6302 22.018 60.5691C18.8994 59.5081 16.2938 57.3131 14.7186 54.4199ZM54.6886 17.4993H50.3136C49.7334 17.4993 49.177 17.7298 48.7668 18.14C48.3565 18.5502 48.1261 19.1066 48.1261 19.6868C48.1261 20.267 48.3565 20.8234 48.7668 21.2336C49.177 21.6438 49.7334 21.8743 50.3136 21.8743H54.6886C55.2687 21.8743 55.8251 21.6438 56.2354 21.2336C56.6456 20.8234 56.8761 20.267 56.8761 19.6868C56.8761 19.1066 56.6456 18.5502 56.2354 18.14C55.8251 17.7298 55.2687 17.4993 54.6886 17.4993ZM21.4605 9.79055L4.52045 48.3255C4.37791 48.6438 4.33631 48.9981 4.40123 49.3407C4.46615 49.6833 4.63449 49.9978 4.88357 50.2418L6.63795 51.9918C6.88795 52.2403 7.20714 52.4074 7.55374 52.4714C7.90034 52.5355 8.2582 52.4933 8.58045 52.3505L47.0892 35.323C47.3456 35.2096 47.5706 35.0354 47.7447 34.8156C47.9188 34.5957 48.0368 34.3368 48.0885 34.0612C48.1401 33.7856 48.124 33.5015 48.0413 33.2335C47.9587 32.9656 47.8121 32.7217 47.6142 32.523L24.2954 9.2568C24.0947 9.05721 23.8485 8.9093 23.578 8.82577C23.3075 8.74223 23.0208 8.72556 22.7425 8.77718C22.4642 8.82881 22.2025 8.94719 21.98 9.12216C21.7574 9.29714 21.5807 9.52349 21.4648 9.7818" fill="#3EA34B"/>
</svg>
