<svg width="57" height="57" viewBox="0 0 57 57" fill="none" xmlns="http://www.w3.org/2000/svg">
<path d="M28.4375 0C22.8131 0 17.315 1.66783 12.6385 4.79258C7.96196 7.91734 4.31706 12.3587 2.16469 17.5549C0.0123215 22.7512 -0.550836 28.469 0.546431 33.9854C1.6437 39.5017 4.35211 44.5688 8.32916 48.5458C12.3062 52.5229 17.3733 55.2313 22.8896 56.3286C28.406 57.4258 34.1238 56.8627 39.3201 54.7103C44.5163 52.558 48.9577 48.913 52.0824 44.2365C55.2072 39.56 56.875 34.0619 56.875 28.4375C56.8663 20.8981 53.8675 13.6699 48.5363 8.33874C43.2051 3.00756 35.9769 0.00868432 28.4375 0ZM52.5 28.4375C52.5019 30.6566 52.1955 32.8652 51.5895 35H41.0594C41.7304 30.6507 41.7304 26.2243 41.0594 21.875H51.5895C52.1955 24.0098 52.5019 26.2184 52.5 28.4375ZM21.3281 39.375H35.5469C34.1462 43.9649 31.7144 48.1738 28.4375 51.6797C25.1622 48.1726 22.7306 43.9642 21.3281 39.375ZM20.2617 35C19.5105 30.6572 19.5105 26.2178 20.2617 21.875H36.6352C37.3864 26.2178 37.3864 30.6572 36.6352 35H20.2617ZM4.37501 28.4375C4.37307 26.2184 4.67952 24.0098 5.28556 21.875H15.8156C15.1446 26.2243 15.1446 30.6507 15.8156 35H5.28556C4.67952 32.8652 4.37307 30.6566 4.37501 28.4375ZM35.5469 17.5H21.3281C22.7288 12.9101 25.1606 8.70122 28.4375 5.19531C31.7129 8.70238 34.1444 12.9108 35.5469 17.5ZM49.8559 17.5H40.116C38.8883 12.9963 36.8194 8.76559 34.0184 5.03125C37.4027 5.84426 40.5713 7.37947 43.3068 9.53164C46.0423 11.6838 48.2801 14.402 49.8668 17.5H49.8559ZM22.8567 5.03125C20.0557 8.76559 17.9867 12.9963 16.759 17.5H7.00822C8.5949 14.402 10.8327 11.6838 13.5682 9.53164C16.3037 7.37947 19.4723 5.84426 22.8567 5.03125ZM7.00822 39.375H16.759C17.9867 43.8787 20.0557 48.1094 22.8567 51.8438C19.4723 51.0307 16.3037 49.4955 13.5682 47.3434C10.8327 45.1912 8.5949 42.473 7.00822 39.375ZM34.0184 51.8438C36.8194 48.1094 38.8883 43.8787 40.116 39.375H49.8668C48.2801 42.473 46.0423 45.1912 43.3068 47.3434C40.5713 49.4955 37.4027 51.0307 34.0184 51.8438Z" fill="#8A2FF1"/>
</svg>
