<svg width="40" height="37" viewBox="0 0 40 37" fill="none" xmlns="http://www.w3.org/2000/svg">
<path d="M25.0601 13.1429C26.0405 13.1429 26.9807 13.5323 27.6739 14.2255C28.3671 14.9187 28.7566 15.8589 28.7566 16.8393V27.1055C28.7566 29.5024 27.8044 31.801 26.1096 33.4959C24.4148 35.1907 22.1161 36.1429 19.7192 36.1429C17.3224 36.1429 15.0237 35.1907 13.3288 33.4959C11.634 31.801 10.6819 29.5024 10.6819 27.1055V16.8393C10.6819 15.8589 11.0713 14.9187 11.7645 14.2255C12.4577 13.5323 13.3979 13.1429 14.3783 13.1429H25.0601ZM25.0601 15.6071H14.3783C14.0515 15.6071 13.7381 15.737 13.507 15.968C13.276 16.1991 13.1461 16.5125 13.1461 16.8393V27.1055C13.1461 28.8488 13.8387 30.5207 15.0714 31.7534C16.304 32.9861 17.9759 33.6786 19.7192 33.6786C21.4625 33.6786 23.1344 32.9861 24.3671 31.7534C25.5998 30.5207 26.2923 28.8488 26.2923 27.1055V16.8393C26.2923 16.5125 26.1625 16.1991 25.9314 15.968C25.7003 15.737 25.3869 15.6071 25.0601 15.6071ZM3.69643 13.1429H10.5241C9.86438 13.8294 9.40086 14.6804 9.18193 15.6071H3.69643C3.36965 15.6071 3.05625 15.737 2.82517 15.968C2.5941 16.1991 2.46429 16.5125 2.46429 16.8393V25.4626C2.46364 26.2871 2.66983 27.0986 3.06399 27.8227C3.45814 28.5469 4.02765 29.1606 4.72039 29.6076C5.41313 30.0547 6.20694 30.3208 7.02916 30.3816C7.85138 30.4425 8.67572 30.2961 9.42672 29.9559C9.64522 30.7609 9.959 31.5264 10.3533 32.2427C9.22774 32.7346 7.99737 32.9383 6.77336 32.8353C5.54935 32.7324 4.37027 32.3261 3.34268 31.6532C2.31509 30.9802 1.47136 30.0618 0.88775 28.981C0.304138 27.9002 -0.000968329 26.691 2.30869e-06 25.4626V16.8393C2.30869e-06 15.8589 0.389446 14.9187 1.08266 14.2255C1.77588 13.5323 2.71608 13.1429 3.69643 13.1429ZM35.7321 13.1429C36.7125 13.1429 37.6527 13.5323 38.3459 14.2255C39.0391 14.9187 39.4286 15.8589 39.4286 16.8393V25.4643C39.4291 26.6918 39.1239 27.9001 38.5407 28.9801C37.9574 30.0602 37.1144 30.978 36.0877 31.6508C35.061 32.3235 33.883 32.7301 32.6599 32.8337C31.4368 32.9374 30.2071 32.7348 29.0819 32.2444L29.1739 32.0768C29.5254 31.4098 29.8096 30.7017 30.0134 29.9591C30.764 30.2969 31.5872 30.4413 32.408 30.3791C33.2287 30.3169 34.0208 30.0502 34.712 29.6032C35.4032 29.1563 35.9714 28.5434 36.3648 27.8204C36.7582 27.0974 36.9643 26.2874 36.9643 25.4643V16.8393C36.9643 16.5128 36.8347 16.1996 36.604 15.9686C36.3733 15.7376 36.0603 15.6076 35.7338 15.6071H30.2581C30.0387 14.6803 29.5747 13.8293 28.9143 13.1429H35.7321ZM19.7143 0C20.4694 -1.59126e-08 21.2171 0.148728 21.9147 0.437693C22.6123 0.726657 23.2462 1.1502 23.7802 1.68414C24.3141 2.21807 24.7376 2.85195 25.0266 3.54957C25.3156 4.24719 25.4643 4.9949 25.4643 5.75C25.4643 6.5051 25.3156 7.25281 25.0266 7.95043C24.7376 8.64805 24.3141 9.28193 23.7802 9.81586C23.2462 10.3498 22.6123 10.7733 21.9147 11.0623C21.2171 11.3513 20.4694 11.5 19.7143 11.5C18.1893 11.5 16.7268 10.8942 15.6484 9.81586C14.5701 8.73753 13.9643 7.27499 13.9643 5.75C13.9643 4.22501 14.5701 2.76247 15.6484 1.68414C16.7268 0.605802 18.1893 3.21369e-08 19.7143 0ZM32.8621 1.64286C33.5093 1.64286 34.1502 1.77034 34.7482 2.01802C35.3461 2.26571 35.8894 2.62874 36.3471 3.0864C36.8048 3.54406 37.1678 4.08738 37.4155 4.68535C37.6632 5.28331 37.7906 5.9242 37.7906 6.57143C37.7906 7.21866 37.6632 7.85955 37.4155 8.45751C37.1678 9.05547 36.8048 9.59879 36.3471 10.0565C35.8894 10.5141 35.3461 10.8772 34.7482 11.1248C34.1502 11.3725 33.5093 11.5 32.8621 11.5C31.5549 11.5 30.3013 10.9807 29.377 10.0565C28.4528 9.13217 27.9335 7.87857 27.9335 6.57143C27.9335 5.26429 28.4528 4.01069 29.377 3.0864C30.3013 2.16212 31.5549 1.64286 32.8621 1.64286ZM6.5665 1.64286C7.21373 1.64286 7.85462 1.77034 8.45259 2.01802C9.05055 2.26571 9.59387 2.62874 10.0515 3.0864C10.5092 3.54406 10.8722 4.08738 11.1199 4.68535C11.3676 5.28331 11.4951 5.9242 11.4951 6.57143C11.4951 7.21866 11.3676 7.85955 11.1199 8.45751C10.8722 9.05547 10.5092 9.59879 10.0515 10.0565C9.59387 10.5141 9.05055 10.8772 8.45259 11.1248C7.85462 11.3725 7.21373 11.5 6.5665 11.5C5.25936 11.5 4.00576 10.9807 3.08148 10.0565C2.15719 9.13217 1.63793 7.87857 1.63793 6.57143C1.63793 5.26429 2.15719 4.01069 3.08148 3.0864C4.00576 2.16212 5.25936 1.64286 6.5665 1.64286ZM19.7143 2.46429C18.8429 2.46429 18.0071 2.81046 17.3909 3.42665C16.7747 4.04284 16.4286 4.87857 16.4286 5.75C16.4286 6.62143 16.7747 7.45716 17.3909 8.07335C18.0071 8.68954 18.8429 9.03571 19.7143 9.03571C20.5857 9.03571 21.4214 8.68954 22.0376 8.07335C22.6538 7.45716 23 6.62143 23 5.75C23 4.87857 22.6538 4.04284 22.0376 3.42665C21.4214 2.81046 20.5857 2.46429 19.7143 2.46429ZM32.8621 4.10714C32.5385 4.10714 32.218 4.17088 31.919 4.29472C31.6201 4.41857 31.3484 4.60008 31.1196 4.82892C30.8907 5.05774 30.7092 5.32941 30.5854 5.62839C30.4615 5.92737 30.3978 6.24781 30.3978 6.57143C30.3978 6.89504 30.4615 7.21549 30.5854 7.51447C30.7092 7.81345 30.8907 8.08511 31.1196 8.31394C31.3484 8.54277 31.6201 8.72429 31.919 8.84813C32.218 8.97197 32.5385 9.03571 32.8621 9.03571C33.5156 9.03571 34.1424 8.77608 34.6046 8.31394C35.0667 7.8518 35.3264 7.225 35.3264 6.57143C35.3264 5.91786 35.0667 5.29106 34.6046 4.82892C34.1424 4.36677 33.5156 4.10714 32.8621 4.10714ZM6.5665 4.10714C6.24289 4.10714 5.92244 4.17088 5.62346 4.29472C5.32448 4.41857 5.05282 4.60008 4.82399 4.82892C4.59516 5.05774 4.41364 5.32941 4.2898 5.62839C4.16596 5.92737 4.10222 6.24781 4.10222 6.57143C4.10222 6.89504 4.16596 7.21549 4.2898 7.51447C4.41364 7.81345 4.59516 8.08511 4.82399 8.31394C5.05282 8.54277 5.32448 8.72429 5.62346 8.84813C5.92244 8.97197 6.24289 9.03571 6.5665 9.03571C7.22007 9.03571 7.84687 8.77608 8.30902 8.31394C8.77116 7.8518 9.03079 7.225 9.03079 6.57143C9.03079 5.91786 8.77116 5.29106 8.30902 4.82892C7.84687 4.36677 7.22007 4.10714 6.5665 4.10714Z" fill="#3EA34B"/>
</svg>
