<svg width="42" height="41" viewBox="0 0 42 41" fill="none" xmlns="http://www.w3.org/2000/svg">
<path d="M1.4375 19.6458C1.4375 12.4181 1.4375 8.80325 3.68383 6.55883C5.93017 4.31442 9.54308 4.3125 16.7708 4.3125H24.4375C31.6652 4.3125 35.2801 4.3125 37.5245 6.55883C39.7689 8.80517 39.7708 12.4181 39.7708 19.6458V23.4792C39.7708 30.7069 39.7708 34.3217 37.5245 36.5662C35.2782 38.8106 31.6652 38.8125 24.4375 38.8125H16.7708C9.54308 38.8125 5.92825 38.8125 3.68383 36.5662C1.43942 34.3198 1.4375 30.7069 1.4375 23.4792V19.6458Z" stroke="#3EA34B" stroke-width="2.875"/>
<path d="M11.0215 4.3125V1.4375M30.1882 4.3125V1.4375M2.39648 13.8958H38.8132" stroke="#3EA34B" stroke-width="2.875" stroke-linecap="round"/>
<path d="M32.1045 29.2291C32.1045 29.7374 31.9026 30.2249 31.5431 30.5844C31.1837 30.9438 30.6962 31.1458 30.1878 31.1458C29.6795 31.1458 29.192 30.9438 28.8325 30.5844C28.4731 30.2249 28.2712 29.7374 28.2712 29.2291C28.2712 28.7208 28.4731 28.2332 28.8325 27.8738C29.192 27.5144 29.6795 27.3124 30.1878 27.3124C30.6962 27.3124 31.1837 27.5144 31.5431 27.8738C31.9026 28.2332 32.1045 28.7208 32.1045 29.2291ZM32.1045 21.5624C32.1045 22.0708 31.9026 22.5583 31.5431 22.9177C31.1837 23.2772 30.6962 23.4791 30.1878 23.4791C29.6795 23.4791 29.192 23.2772 28.8325 22.9177C28.4731 22.5583 28.2712 22.0708 28.2712 21.5624C28.2712 21.0541 28.4731 20.5666 28.8325 20.2071C29.192 19.8477 29.6795 19.6458 30.1878 19.6458C30.6962 19.6458 31.1837 19.8477 31.5431 20.2071C31.9026 20.5666 32.1045 21.0541 32.1045 21.5624ZM22.5212 29.2291C22.5212 29.7374 22.3192 30.2249 21.9598 30.5844C21.6003 30.9438 21.1128 31.1458 20.6045 31.1458C20.0962 31.1458 19.6086 30.9438 19.2492 30.5844C18.8898 30.2249 18.6878 29.7374 18.6878 29.2291C18.6878 28.7208 18.8898 28.2332 19.2492 27.8738C19.6086 27.5144 20.0962 27.3124 20.6045 27.3124C21.1128 27.3124 21.6003 27.5144 21.9598 27.8738C22.3192 28.2332 22.5212 28.7208 22.5212 29.2291ZM22.5212 21.5624C22.5212 22.0708 22.3192 22.5583 21.9598 22.9177C21.6003 23.2772 21.1128 23.4791 20.6045 23.4791C20.0962 23.4791 19.6086 23.2772 19.2492 22.9177C18.8898 22.5583 18.6878 22.0708 18.6878 21.5624C18.6878 21.0541 18.8898 20.5666 19.2492 20.2071C19.6086 19.8477 20.0962 19.6458 20.6045 19.6458C21.1128 19.6458 21.6003 19.8477 21.9598 20.2071C22.3192 20.5666 22.5212 21.0541 22.5212 21.5624ZM12.9378 29.2291C12.9378 29.7374 12.7359 30.2249 12.3764 30.5844C12.017 30.9438 11.5295 31.1458 11.0212 31.1458C10.5128 31.1458 10.0253 30.9438 9.66587 30.5844C9.30643 30.2249 9.10449 29.7374 9.10449 29.2291C9.10449 28.7208 9.30643 28.2332 9.66587 27.8738C10.0253 27.5144 10.5128 27.3124 11.0212 27.3124C11.5295 27.3124 12.017 27.5144 12.3764 27.8738C12.7359 28.2332 12.9378 28.7208 12.9378 29.2291ZM12.9378 21.5624C12.9378 22.0708 12.7359 22.5583 12.3764 22.9177C12.017 23.2772 11.5295 23.4791 11.0212 23.4791C10.5128 23.4791 10.0253 23.2772 9.66587 22.9177C9.30643 22.5583 9.10449 22.0708 9.10449 21.5624C9.10449 21.0541 9.30643 20.5666 9.66587 20.2071C10.0253 19.8477 10.5128 19.6458 11.0212 19.6458C11.5295 19.6458 12.017 19.8477 12.3764 20.2071C12.7359 20.5666 12.9378 21.0541 12.9378 21.5624Z" fill="#3EA34B"/>
</svg>
