<svg width="27" height="37" viewBox="0 0 27 37" fill="none" xmlns="http://www.w3.org/2000/svg">
<path d="M23.575 17.25C23.575 23 18.7067 27.025 13.4167 27.025C8.12667 27.025 3.25833 23 3.25833 17.25H0C0 23.7858 5.21333 29.1908 11.5 30.13V36.4167H15.3333V30.13C21.62 29.1908 26.8333 23.7858 26.8333 17.25M11.1167 5.55833C11.1167 4.29333 12.1517 3.25833 13.4167 3.25833C14.6817 3.25833 15.7167 4.29333 15.7167 5.55833L15.6975 17.4417C15.6975 18.7067 14.6817 19.7417 13.4167 19.7417C12.1517 19.7417 11.1167 18.7067 11.1167 17.4417M13.4167 23C14.9417 23 16.4042 22.3942 17.4825 21.3159C18.5609 20.2375 19.1667 18.775 19.1667 17.25V5.75C19.1667 4.22501 18.5609 2.76247 17.4825 1.68414C16.4042 0.605802 14.9417 0 13.4167 0C11.8917 0 10.4291 0.605802 9.3508 1.68414C8.27247 2.76247 7.66667 4.22501 7.66667 5.75V17.25C7.66667 18.775 8.27247 20.2375 9.3508 21.3159C10.4291 22.3942 11.8917 23 13.4167 23Z" fill="#3EA34B"/>
</svg>
