<svg width="33" height="33" viewBox="0 0 33 33" fill="none" xmlns="http://www.w3.org/2000/svg">
<path d="M16.334 9.66772V31.3344M1.33398 11.3344C1.33398 10.8924 1.50958 10.4684 1.82214 10.1559C2.1347 9.84332 2.55862 9.66772 3.00065 9.66772H29.6673C30.1093 9.66772 30.5333 9.84332 30.8458 10.1559C31.1584 10.4684 31.334 10.8924 31.334 11.3344V14.6677C31.334 15.1098 31.1584 15.5337 30.8458 15.8462C30.5333 16.1588 30.1093 16.3344 29.6673 16.3344H3.00065C2.55862 16.3344 2.1347 16.1588 1.82214 15.8462C1.50958 15.5337 1.33398 15.1098 1.33398 14.6677V11.3344Z" stroke="#00A73D" stroke-width="2.66667" stroke-linecap="round" stroke-linejoin="round"/>
<path d="M28.0013 16.3341V28.0008C28.0013 28.8848 27.6501 29.7327 27.025 30.3578C26.3999 30.9829 25.552 31.3341 24.668 31.3341H8.0013C7.11725 31.3341 6.2694 30.9829 5.64428 30.3578C5.01916 29.7327 4.66797 28.8848 4.66797 28.0008V16.3341M8.83464 9.66744C7.72957 9.66744 6.66976 9.22845 5.88836 8.44705C5.10696 7.66565 4.66797 6.60584 4.66797 5.50077C4.66797 4.3957 5.10696 3.33589 5.88836 2.55449C6.66976 1.77309 7.72957 1.3341 8.83464 1.3341C10.4424 1.30609 12.018 2.0862 13.3559 3.5727C14.6937 5.05921 15.7318 7.18311 16.3346 9.66744C16.9375 7.18311 17.9756 5.05921 19.3134 3.5727C20.6513 2.0862 22.2268 1.30609 23.8346 1.3341C24.9397 1.3341 25.9995 1.77309 26.7809 2.55449C27.5623 3.33589 28.0013 4.3957 28.0013 5.50077C28.0013 6.60584 27.5623 7.66565 26.7809 8.44705C25.9995 9.22845 24.9397 9.66744 23.8346 9.66744" stroke="#00A73D" stroke-width="2.66667" stroke-linecap="round" stroke-linejoin="round"/>
</svg>
