<svg width="72" height="72" viewBox="0 0 72 72" fill="none" xmlns="http://www.w3.org/2000/svg">
<path d="M28.2 6H10.8C9.80589 6 9 6.80589 9 7.8V19.2C9 20.1941 9.80589 21 10.8 21H28.2C29.1941 21 30 20.1941 30 19.2V7.8C30 6.80589 29.1941 6 28.2 6Z" stroke="#8A2FF1" stroke-width="3.625"/>
<path d="M44.7 51H27.3C26.3059 51 25.5 51.8059 25.5 52.8V64.2C25.5 65.1941 26.3059 66 27.3 66H44.7C45.6941 66 46.5 65.1941 46.5 64.2V52.8C46.5 51.8059 45.6941 51 44.7 51Z" stroke="#8A2FF1" stroke-width="3.625"/>
<path d="M61.2 6H43.8C42.8059 6 42 6.80589 42 7.8V19.2C42 20.1941 42.8059 21 43.8 21H61.2C62.1941 21 63 20.1941 63 19.2V7.8C63 6.80589 62.1941 6 61.2 6Z" stroke="#8A2FF1" stroke-width="3.625"/>
<path d="M19.5 21V31.5C19.5 33.0913 20.1321 34.6174 21.2574 35.7426C22.3826 36.8679 23.9087 37.5 25.5 37.5H46.5C48.0913 37.5 49.6174 36.8679 50.7426 35.7426C51.8679 34.6174 52.5 33.0913 52.5 31.5V21M36 37.5V51" stroke="#8A2FF1" stroke-width="3.625"/>
</svg>
