<svg width="70" height="70" viewBox="0 0 70 70" fill="none" xmlns="http://www.w3.org/2000/svg">
<path d="M25.3521 32.8124V21.8749C25.3521 21.2216 25.5815 20.6655 26.0404 20.2066C26.4974 19.7477 27.0535 19.5182 27.7088 19.5182C28.364 19.5182 28.9202 19.7477 29.3771 20.2066C29.836 20.6655 30.0654 21.2216 30.0654 21.8749V32.8124C30.0654 33.4677 29.836 34.0238 29.3771 34.4807C28.9182 34.9396 28.3621 35.1691 27.7088 35.1691C27.0554 35.1691 26.4993 34.9396 26.0404 34.4807C25.5815 34.0218 25.3521 33.4657 25.3521 32.8124ZM38.0308 36.5866V10.2082C38.0308 9.5549 38.2593 8.99878 38.7163 8.5399C39.1752 8.08101 39.7313 7.85156 40.3846 7.85156C41.0399 7.85156 41.596 8.08101 42.0529 8.5399C42.5118 8.99878 42.7413 9.5549 42.7413 10.2082V36.5866C42.7413 37.3721 42.5002 37.9613 42.0179 38.3541C41.5338 38.7468 40.9922 38.9432 40.3933 38.9432C39.7945 38.9432 39.25 38.7468 38.76 38.3541C38.27 37.9613 38.027 37.3721 38.0308 36.5866ZM12.5654 42.8341V33.5416C12.5654 32.8882 12.7939 32.3321 13.2508 31.8732C13.7097 31.4143 14.2668 31.1849 14.9221 31.1849C15.5774 31.1849 16.1335 31.4143 16.5904 31.8732C17.0474 32.3321 17.2758 32.8882 17.2758 33.5416V42.837C17.2758 43.6225 17.0347 44.2107 16.5525 44.6016C16.0703 44.9943 15.5288 45.1907 14.9279 45.1907C14.329 45.1907 13.7846 44.9943 13.2946 44.6016C12.8085 44.2107 12.5654 43.6225 12.5654 42.837M15.73 59.9374C15.0786 59.9374 14.6285 59.6409 14.3796 59.0478C14.1307 58.4567 14.2435 57.923 14.7179 57.4466L26.1163 46.0511C26.5382 45.6273 27.0583 45.391 27.6767 45.3424C28.295 45.2938 28.8443 45.4814 29.3246 45.9053L38.0308 53.3866L57.7271 33.6874H52.5004C52.0863 33.6874 51.7402 33.5474 51.4621 33.2674C51.184 32.9874 51.044 32.6403 51.0421 32.2261C51.0401 31.812 51.1801 31.4659 51.4621 31.1878C51.744 30.9098 52.0902 30.7707 52.5004 30.7707H60.3521C61.021 30.7707 61.581 30.9963 62.0321 31.4474C62.4832 31.8985 62.7088 32.4585 62.7088 33.1274V40.9791C62.7088 41.3932 62.5688 41.7393 62.2888 42.0174C62.0088 42.2955 61.6617 42.4355 61.2475 42.4374C60.8333 42.4393 60.4872 42.2993 60.2092 42.0174C59.9311 41.7355 59.7921 41.3893 59.7921 40.9791V35.7524L39.6554 55.8891C39.2335 56.311 38.7133 56.5463 38.095 56.5949C37.4767 56.6435 36.9274 56.4559 36.4471 56.032L27.7408 48.5507L16.7829 59.5116C16.6585 59.6282 16.502 59.7284 16.3133 59.812C16.1247 59.8956 15.9303 59.9374 15.73 59.9374Z" fill="#2060F3"/>
</svg>
