<svg width="70" height="70" viewBox="0 0 70 70" fill="none" xmlns="http://www.w3.org/2000/svg">
<g clip-path="url(#clip0_42_628)">
<path d="M42.2917 30.625L28.9742 35L26.25 32.2758L38.3017 21.875H43.75L52.5 26.25L59.7917 27.7083V46.6667L53.9583 48.125H40.4658" stroke="#3EA34B" stroke-width="2.91667" stroke-miterlimit="10" stroke-linecap="round" stroke-linejoin="round"/>
<path d="M10.208 43.7498L17.7826 45.2082L29.3093 56.7319L34.2938 55.8744L35.1513 50.8898L40.1359 50.0294L40.9963 45.0448L45.978 44.1873L46.8384 39.2028L39.258 31.6223M33.5822 25.9465L28.0522 20.4165L17.4997 24.7915L10.208 26.2498M10.208 21.8748H1.45801V48.1248H10.208V21.8748ZM68.5413 24.7915H59.7913V51.0415H68.5413V24.7915Z" stroke="#3EA34B" stroke-width="2.91667" stroke-miterlimit="10" stroke-linejoin="round"/>
</g>
<defs>
<clipPath id="clip0_42_628">
<rect width="70" height="70" fill="white"/>
</clipPath>
</defs>
</svg>
