<svg width="108" height="108" viewBox="0 0 108 108" fill="none" xmlns="http://www.w3.org/2000/svg">
<circle cx="54" cy="54" r="54" fill="#D9D9D9"/>
<path d="M40.5724 62H35.8636V47.4545H40.7216C42.1468 47.4545 43.3707 47.7457 44.3935 48.3281C45.4162 48.9058 46.1998 49.7367 46.7443 50.821C47.2936 51.9006 47.5682 53.1955 47.5682 54.706C47.5682 56.2211 47.2912 57.5232 46.7372 58.6122C46.188 59.7012 45.3925 60.5393 44.3509 61.1264C43.3092 61.7088 42.0497 62 40.5724 62ZM38.0582 60.0824H40.4517C41.5597 60.0824 42.4806 59.8741 43.2145 59.4574C43.9484 59.036 44.4976 58.4276 44.8622 57.6321C45.2268 56.8319 45.4091 55.8565 45.4091 54.706C45.4091 53.5649 45.2268 52.5966 44.8622 51.8011C44.5024 51.0057 43.965 50.402 43.25 49.9901C42.535 49.5781 41.6473 49.3722 40.5866 49.3722H38.0582V60.0824ZM50.8033 62H48.4737L53.7081 47.4545H56.2436L61.478 62H59.1484L55.0362 50.0966H54.9226L50.8033 62ZM51.1939 56.304H58.7507V58.1506H51.1939V56.304ZM71.3945 51.2756C71.3188 50.6032 71.0063 50.0824 70.457 49.7131C69.9078 49.339 69.2165 49.152 68.3832 49.152C67.7866 49.152 67.2705 49.2467 66.8349 49.4361C66.3993 49.6207 66.0607 49.8764 65.8192 50.2031C65.5825 50.5251 65.4641 50.892 65.4641 51.304C65.4641 51.6496 65.5446 51.9479 65.7056 52.1989C65.8713 52.4498 66.0868 52.6605 66.3519 52.831C66.6218 52.9967 66.9106 53.1364 67.2184 53.25C67.5262 53.3589 67.8221 53.4489 68.1062 53.5199L69.5266 53.8892C69.9906 54.0028 70.4665 54.1567 70.9542 54.3509C71.4419 54.545 71.8941 54.8007 72.3107 55.1179C72.7274 55.4351 73.0636 55.8281 73.3192 56.2969C73.5797 56.7656 73.7099 57.3267 73.7099 57.9801C73.7099 58.804 73.4968 59.5355 73.0707 60.1747C72.6493 60.8139 72.0361 61.3182 71.2312 61.6875C70.431 62.0568 69.4627 62.2415 68.3263 62.2415C67.2373 62.2415 66.2951 62.0687 65.4996 61.723C64.7042 61.3774 64.0816 60.8873 63.6317 60.2528C63.1819 59.6136 62.9334 58.8561 62.886 57.9801H65.0877C65.1303 58.5057 65.3008 58.9437 65.5991 59.294C65.9021 59.6397 66.288 59.8977 66.7567 60.0682C67.2302 60.2339 67.7487 60.3168 68.3121 60.3168C68.9324 60.3168 69.484 60.2197 69.967 60.0256C70.4547 59.8267 70.8382 59.5521 71.1175 59.2017C71.3969 58.8466 71.5366 58.4323 71.5366 57.9588C71.5366 57.5279 71.4135 57.1752 71.1673 56.9006C70.9258 56.6259 70.5967 56.3987 70.18 56.2188C69.7681 56.0388 69.3017 55.8802 68.7809 55.7429L67.0621 55.2741C65.8974 54.9569 64.9741 54.4905 64.2923 53.875C63.6152 53.2595 63.2766 52.4451 63.2766 51.4318C63.2766 50.5937 63.5039 49.8622 63.9585 49.2372C64.413 48.6122 65.0285 48.1269 65.805 47.7812C66.5816 47.4309 67.4575 47.2557 68.4329 47.2557C69.4177 47.2557 70.2866 47.4285 71.0394 47.7741C71.797 48.1198 72.3936 48.5956 72.8292 49.2017C73.2648 49.803 73.4921 50.4943 73.511 51.2756H71.3945Z" fill="#171717"/>
</svg>
