<svg width="108" height="108" viewBox="0 0 108 108" fill="none" xmlns="http://www.w3.org/2000/svg">
<circle cx="54" cy="54" r="54" fill="#D9D9D9"/>
<path d="M40.6681 62H35.9593V47.4545H40.8173C42.2425 47.4545 43.4664 47.7457 44.4892 48.3281C45.5119 48.9058 46.2955 49.7367 46.84 50.821C47.3893 51.9006 47.6639 53.1955 47.6639 54.706C47.6639 56.2211 47.3869 57.5232 46.8329 58.6122C46.2837 59.7012 45.4882 60.5393 44.4466 61.1264C43.4049 61.7088 42.1454 62 40.6681 62ZM38.1539 60.0824H40.5474C41.6554 60.0824 42.5763 59.8741 43.3102 59.4574C44.0441 59.036 44.5933 58.4276 44.9579 57.6321C45.3225 56.8319 45.5048 55.8565 45.5048 54.706C45.5048 53.5649 45.3225 52.5966 44.9579 51.8011C44.5981 51.0057 44.0607 50.402 43.3457 49.9901C42.6307 49.5781 41.743 49.3722 40.6824 49.3722H38.1539V60.0824ZM50.3929 62V47.4545H59.5123V49.3438H52.5875V53.7756H59.0364V55.6577H52.5875V60.1108H59.5975V62H50.3929ZM62.4437 62V47.4545H67.6284C68.76 47.4545 69.6975 47.6605 70.4409 48.0724C71.1842 48.4844 71.7406 49.0478 72.1099 49.7628C72.4792 50.473 72.6639 51.2732 72.6639 52.1634C72.6639 53.0582 72.4769 53.8632 72.1028 54.5781C71.7335 55.2884 71.1748 55.8518 70.4267 56.2685C69.6833 56.6804 68.7482 56.8864 67.6213 56.8864H64.0559V55.0256H67.4224C68.1374 55.0256 68.7174 54.9025 69.1625 54.6562C69.6075 54.4053 69.9342 54.0644 70.1426 53.6335C70.3509 53.2027 70.4551 52.7126 70.4551 52.1634C70.4551 51.6141 70.3509 51.1264 70.1426 50.7003C69.9342 50.2741 69.6052 49.9403 69.1554 49.6989C68.7103 49.4574 68.1232 49.3366 67.394 49.3366H64.6383V62H62.4437Z" fill="#171717"/>
</svg>
