<svg width="108" height="108" viewBox="0 0 108 108" fill="none" xmlns="http://www.w3.org/2000/svg">
<circle cx="54" cy="54" r="54" fill="#D9D9D9"/>
<path d="M48.3803 47.4545H50.5678V57.767C50.5678 58.6998 50.3832 59.4976 50.0138 60.1605C49.6493 60.8234 49.1355 61.33 48.4727 61.6804C47.8098 62.026 47.0333 62.1989 46.1431 62.1989C45.324 62.1989 44.5877 62.0497 43.9343 61.7514C43.2856 61.4531 42.7719 61.0199 42.3931 60.4517C42.0191 59.8788 41.832 59.1828 41.832 58.3636H44.0124C44.0124 58.7661 44.1048 59.1141 44.2894 59.4077C44.4788 59.7012 44.7369 59.9309 45.0636 60.0966C45.395 60.2576 45.7738 60.3381 46.1999 60.3381C46.6639 60.3381 47.0569 60.241 47.3789 60.0469C47.7056 59.848 47.9542 59.5568 48.1246 59.1733C48.2951 58.7898 48.3803 58.321 48.3803 57.767V47.4545ZM65.843 52.1847H63.6271C63.5419 51.7112 63.3833 51.2945 63.1513 50.9347C62.9193 50.5748 62.6352 50.2694 62.299 50.0185C61.9628 49.7675 61.5864 49.5781 61.1697 49.4503C60.7578 49.3224 60.3198 49.2585 59.8558 49.2585C59.0178 49.2585 58.2673 49.4692 57.6044 49.8906C56.9463 50.312 56.4254 50.9299 56.0419 51.7443C55.6631 52.5587 55.4737 53.553 55.4737 54.7273C55.4737 55.911 55.6631 56.91 56.0419 57.7244C56.4254 58.5388 56.9486 59.1544 57.6115 59.571C58.2744 59.9877 59.0201 60.196 59.8487 60.196C60.308 60.196 60.7436 60.1345 61.1555 60.0114C61.5722 59.8835 61.9486 59.6965 62.2848 59.4503C62.621 59.2041 62.9051 58.9034 63.1371 58.5483C63.3738 58.1884 63.5372 57.7765 63.6271 57.3125L65.843 57.3196C65.7247 58.0346 65.495 58.6927 65.1541 59.294C64.8179 59.8906 64.3847 60.4067 63.8544 60.8423C63.3288 61.2732 62.7275 61.607 62.0504 61.8438C61.3733 62.0805 60.6347 62.1989 59.8345 62.1989C58.575 62.1989 57.4529 61.9006 56.468 61.304C55.4832 60.7027 54.7067 59.8433 54.1385 58.7259C53.575 57.6084 53.2933 56.2756 53.2933 54.7273C53.2933 53.1742 53.5774 51.8414 54.1456 50.7287C54.7138 49.6113 55.4903 48.7543 56.4751 48.1577C57.46 47.5563 58.5798 47.2557 59.8345 47.2557C60.6063 47.2557 61.326 47.367 61.9936 47.5895C62.666 47.8073 63.2696 48.1293 63.8047 48.5554C64.3397 48.9768 64.7824 49.4929 65.1328 50.1037C65.4832 50.7098 65.7199 51.4034 65.843 52.1847Z" fill="#171717"/>
</svg>
