<svg width="49" height="49" viewBox="0 0 49 49" fill="none" xmlns="http://www.w3.org/2000/svg">
<path d="M16.5536 2.16175C16.9503 2.16175 17.2742 1.83991 17.2742 1.44117V0.720584C17.2742 0.323853 16.9523 0 16.5536 0C16.1569 0 15.833 0.321838 15.833 0.720584L15.835 1.44117C15.835 1.83992 16.1569 2.16175 16.5536 2.16175Z" fill="#8A2FF1"/>
<path d="M8.37372 3.82557C8.50731 4.05632 8.74819 4.18586 8.99714 4.18586C9.54569 4.18586 9.8979 3.58876 9.62057 3.10701L9.26027 2.48358C9.0619 2.13948 8.62063 2.02208 8.27655 2.22045C7.93245 2.41881 7.81505 2.86009 8.01341 3.20416L8.37372 3.82557Z" fill="#8A2FF1"/>
<path d="M4.08877 9.35767C4.28714 9.01357 4.16974 8.57232 3.82563 8.37395L3.20221 8.01366C2.8581 7.81529 2.41685 7.93269 2.21849 8.2768C2.02013 8.6209 2.13753 9.06215 2.48163 9.26051C3.02209 9.54794 3.15568 9.71595 3.46333 9.71595C3.71432 9.71797 3.95519 9.58843 4.08877 9.35767Z" fill="#8A2FF1"/>
<path d="M1.44117 15.835H0.720584C0.323853 15.835 0 16.1568 0 16.5555C0 16.9523 0.321838 17.2761 0.720584 17.2761H1.44117C1.8379 17.2761 2.16175 16.9543 2.16175 16.5555C2.15973 16.1588 1.83789 15.835 1.44117 15.835Z" fill="#8A2FF1"/>
<path d="M31.6679 17.2737H32.3884C32.7852 17.2737 33.109 16.9518 33.109 16.5531C33.109 16.1564 32.7872 15.8325 32.3884 15.8325H31.6679C31.2711 15.8325 30.9473 16.1544 30.9473 16.5531C30.9493 16.9519 31.2711 17.2737 31.6679 17.2737Z" fill="#8A2FF1"/>
<path d="M30.004 9.62081L30.6274 9.26051C30.9715 9.06215 31.0889 8.62087 30.8905 8.2768C30.6922 7.93269 30.2509 7.81529 29.9068 8.01366L29.2834 8.37396C28.9393 8.57232 28.8219 9.0136 29.0202 9.35767C29.2206 9.7038 29.6599 9.81918 30.004 9.62081Z" fill="#8A2FF1"/>
<path d="M24.1097 4.18617C24.3587 4.18617 24.5995 4.05663 24.7331 3.82588L25.0934 3.20245C25.2918 2.85835 25.1744 2.4171 24.8303 2.21874C24.4862 2.02037 24.0449 2.13777 23.8466 2.48187L23.4863 3.1053C23.2089 3.58907 23.5632 4.18617 24.1097 4.18617Z" fill="#8A2FF1"/>
<path d="M35.803 34.536C36.1977 34.536 36.5175 34.2182 36.5216 33.8235C36.5256 33.3823 36.5661 32.9592 36.6369 32.5524C41.2439 32.4795 44.4542 27.9879 43.0981 23.6179C42.6832 22.2799 41.331 21.4622 39.9567 21.7192C35.293 22.5856 32.8275 27.8364 35.2748 31.9917C35.1594 32.5625 35.0906 33.1677 35.0845 33.8073C35.0784 34.2061 35.4002 34.536 35.803 34.536ZM40.2197 23.136C40.8795 23.0146 41.5252 23.4052 41.7236 24.0469C42.7438 27.3362 40.4929 30.7729 37.0255 31.0931C37.2563 30.4575 37.5518 29.8807 37.8676 29.3706C38.5254 28.7188 39.408 28.8301 39.4586 28.8383C39.8492 28.899 40.2156 28.6338 40.2803 28.2432C40.3451 27.8505 40.0779 27.4801 39.6873 27.4173C39.6731 27.4153 39.5861 27.4011 39.4464 27.395C39.9849 26.8607 40.3856 26.5712 40.4018 26.5611C40.7277 26.3344 40.8067 25.885 40.58 25.5591C40.3533 25.2332 39.9039 25.1523 39.578 25.381C39.5314 25.4134 39.2035 25.6462 38.744 26.0672V26.0652C38.6428 25.6806 38.2481 25.4518 37.8656 25.553C37.481 25.6542 37.2522 26.049 37.3535 26.4315C37.4162 26.6683 37.487 27.2715 37.3251 27.6136C36.8332 28.2512 36.3414 29.0183 35.9446 29.911C35.1147 26.8404 37.1005 23.7148 40.2197 23.136Z" fill="#8A2FF1"/>
<path d="M48.9017 27.1945C48.8673 26.7977 48.5151 26.5063 48.1204 26.5427C47.7237 26.5771 47.4322 26.9273 47.4687 27.324C47.918 32.3338 43.9365 36.7078 38.8642 36.7078C34.1014 36.7078 30.2272 32.8335 30.2272 28.0707C30.2272 23.3079 34.1014 19.4337 38.8642 19.4337C41.3985 19.4337 43.793 20.5388 45.4369 22.4679C45.6939 22.7695 46.1494 22.8059 46.4509 22.5488C46.7525 22.2918 46.789 21.8363 46.5319 21.5347C44.615 19.2839 41.8197 17.9945 38.8644 17.9945C33.3079 17.9945 28.7883 22.5145 28.7883 28.0706C28.7883 33.384 32.9237 37.7502 38.1441 38.1207V41.3755C38.1441 44.7538 35.3953 47.5025 32.0171 47.5025H23.4023C20.0241 47.5025 17.2754 44.7537 17.2754 41.3755V38.147C19.0141 38.147 20.4675 36.9082 20.8014 35.2686H20.8743C22.0645 35.2686 23.0341 34.2991 23.0341 33.1089C23.0341 32.1697 22.4329 31.3701 21.5949 31.0726V30.273C21.5949 29.2467 22.1496 28.2894 23.0422 27.7712C27.0338 25.4596 29.5112 21.1623 29.5112 16.5551C29.5112 9.46432 23.8174 3.68556 16.7126 3.60058C7.73773 3.49127 1.06821 12.6444 4.50894 21.326C4.65467 21.6964 5.07365 21.8766 5.4441 21.7288C5.81452 21.5831 5.99467 21.1641 5.84893 20.7937C2.78031 13.0614 8.74753 4.94248 16.6945 5.0399C22.9671 5.11479 28.0701 10.2803 28.0701 16.5555C28.0701 20.6503 25.8658 24.4696 22.3173 26.5263C20.9813 27.2995 20.1514 28.7367 20.1514 30.273V30.9491H18.7123L18.7143 19.7657C20.615 20.8689 23.0318 19.4965 23.0318 17.274C23.0318 15.687 21.7404 14.3956 20.1534 14.3956C18.5665 14.3956 17.2751 15.687 17.2751 17.274V30.9493H15.836V17.274C15.836 15.687 14.5445 14.3956 12.9576 14.3956C11.3707 14.3956 10.0793 15.687 10.0793 17.274C10.0793 19.4904 12.49 20.8709 14.3968 19.7657V30.9491H12.9576V30.2305C12.9576 28.7185 12.1297 27.2996 10.7978 26.5284C10.1319 26.1418 9.50439 25.6904 8.93154 25.1823C8.63399 24.9192 8.17857 24.9455 7.91544 25.243C7.65231 25.5406 7.67862 25.996 7.97617 26.2591C8.61985 26.83 9.32831 27.34 10.0772 27.7752C10.9658 28.2894 11.5184 29.2306 11.5184 30.2326V31.0746C10.6804 31.3721 10.0793 32.1717 10.0793 33.1109C10.0793 34.3011 11.0488 35.2707 12.239 35.2707H12.3119C12.6459 36.9103 14.0992 38.149 15.838 38.149V41.3776C15.838 45.5493 19.2325 48.944 23.4045 48.944H32.0213C36.1931 48.944 39.5878 45.5495 39.5878 41.3776V38.1228C45.1868 37.722 49.4048 32.773 48.9032 27.1943L48.9017 27.1945ZM20.153 15.8349C20.9465 15.8349 21.5922 16.4806 21.5922 17.274C21.5922 18.0675 20.9465 18.7132 20.153 18.7132C19.3596 18.7132 18.7139 18.0675 18.7139 17.274C18.7139 16.4806 19.3596 15.8349 20.153 15.8349ZM12.957 18.7152C12.1636 18.7152 11.5179 18.0695 11.5179 17.2761C11.5179 16.4827 12.1636 15.837 12.957 15.837C13.7505 15.837 14.3962 16.4827 14.3962 17.2761C14.3962 18.0695 13.7505 18.7152 12.957 18.7152ZM11.5179 33.1088C11.5179 32.7121 11.8397 32.3882 12.2385 32.3882H20.8755C21.2722 32.3882 21.5961 32.71 21.5961 33.1088C21.5961 33.5055 21.2743 33.8294 20.8755 33.8294H12.2385C11.8397 33.8273 11.5179 33.5055 11.5179 33.1088ZM13.7991 35.2665H19.311C19.0134 36.1045 18.2139 36.7057 17.2747 36.7057H15.8355C14.8963 36.7057 14.0966 36.1045 13.7991 35.2665Z" fill="#8A2FF1"/>
<path d="M48.1833 24.4718C48.1833 25.4313 46.7441 25.4313 46.7441 24.4718C46.7441 23.5123 48.1833 23.5123 48.1833 24.4718Z" fill="#8A2FF1"/>
<path d="M7.19794 23.6278C7.19794 24.5873 5.75879 24.5873 5.75879 23.6278C5.75879 22.6683 7.19794 22.6683 7.19794 23.6278Z" fill="#8A2FF1"/>
</svg>
