<svg width="70" height="70" viewBox="0 0 70 70" fill="none" xmlns="http://www.w3.org/2000/svg">
<path d="M40.6878 53.5731H29.3133C26.9746 53.5731 25.0709 51.6694 25.0709 49.3307L25.0693 24.435C25.0693 22.0964 26.9731 20.1926 29.3117 20.1926H40.6862C43.0249 20.1926 44.9286 22.0964 44.9286 24.435V49.3291C44.9286 51.6678 43.0249 53.5715 40.6862 53.5715L40.6878 53.5731ZM29.3117 22.669C28.3382 22.669 27.5457 23.4615 27.5457 24.435V49.3291C27.5457 50.3027 28.3382 51.0951 29.3117 51.0951H40.6862C41.6597 51.0951 42.4521 50.3027 42.4521 49.3291L42.4537 24.435C42.4537 23.4615 41.6612 22.669 40.6877 22.669H29.3117Z" fill="#3EA34B"/>
<path d="M37.678 18.9034H32.3241C31.64 18.9034 31.0859 18.3493 31.0859 17.6652C31.0859 16.9811 31.64 16.427 32.3241 16.427H37.678C38.3621 16.427 38.9162 16.9811 38.9162 17.6652C38.9162 18.3493 38.3621 18.9034 37.678 18.9034Z" fill="#3EA34B"/>
<path d="M35.0006 43.9677C34.8334 43.9677 34.6632 43.9337 34.4991 43.8625C33.8738 43.5854 33.5906 42.8549 33.8676 42.2296L35.6847 38.1219H32.4127C31.9933 38.1219 31.6032 37.9099 31.3757 37.5585C31.1467 37.2072 31.1111 36.7645 31.2813 36.3822L33.8676 30.5347C34.1431 29.9094 34.8737 29.6261 35.502 29.9032C36.1273 30.1802 36.4106 30.9108 36.1335 31.5361L34.3165 35.6437H37.5884C38.0079 35.6437 38.3979 35.8558 38.6254 36.2071C38.8545 36.5585 38.8901 37.0011 38.7199 37.3835L36.1336 43.231C35.9293 43.6938 35.4758 43.9677 35.0006 43.9677Z" fill="#3EA34B"/>
<path d="M62.6184 53.5731H51.2439C48.9053 53.5731 47.0015 51.6694 47.0015 49.3307L47 24.435C47 22.0964 48.9037 20.1926 51.2424 20.1926H62.6169C64.9555 20.1926 66.8593 22.0964 66.8593 24.435V49.3291C66.8593 51.6678 64.9555 53.5715 62.6169 53.5715L62.6184 53.5731ZM51.2424 22.669C50.2688 22.669 49.4764 23.4615 49.4764 24.435V49.3291C49.4764 50.3027 50.2688 51.0951 51.2424 51.0951H62.6168C63.5904 51.0951 64.3828 50.3027 64.3828 49.3291L64.3844 24.435C64.3844 23.4615 63.5919 22.669 62.6184 22.669H51.2424Z" fill="#3EA34B"/>
<path d="M59.6086 18.9034H54.2548C53.5707 18.9034 53.0166 18.3493 53.0166 17.6652C53.0166 16.9811 53.5707 16.427 54.2548 16.427H59.6086C60.2927 16.427 60.8468 16.9811 60.8468 17.6652C60.8468 18.3493 60.2927 18.9034 59.6086 18.9034Z" fill="#3EA34B"/>
<path d="M56.9313 43.9677C56.7641 43.9677 56.5939 43.9337 56.4298 43.8625C55.8045 43.5854 55.5212 42.8549 55.7983 42.2296L57.6153 38.1219H54.3434C53.9239 38.1219 53.5339 37.9099 53.3064 37.5585C53.0773 37.2072 53.0417 36.7645 53.212 36.3822L55.7983 30.5347C56.0738 29.9094 56.8043 29.6261 57.4327 29.9032C58.058 30.1802 58.3412 30.9108 58.0642 31.5361L56.2471 35.6437H59.5191C59.9385 35.6437 60.3286 35.8558 60.5561 36.2071C60.7852 36.5585 60.8208 37.0011 60.6505 37.3835L58.0642 43.231C57.8599 43.6938 57.4064 43.9677 56.9313 43.9677Z" fill="#3EA34B"/>
<path d="M18.6184 53.5731H7.24394C4.9053 53.5731 3.00155 51.6694 3.00155 49.3307L3 24.435C3 22.0964 4.90375 20.1926 7.2424 20.1926H18.6169C20.9555 20.1926 22.8593 22.0964 22.8593 24.435V49.3291C22.8593 51.6678 20.9555 53.5715 18.6169 53.5715L18.6184 53.5731ZM7.24236 22.669C6.26883 22.669 5.47638 23.4615 5.47638 24.435V49.3291C5.47638 50.3027 6.26883 51.0951 7.24236 51.0951H18.6168C19.5904 51.0951 20.3828 50.3027 20.3828 49.3291L20.3844 24.435C20.3844 23.4615 19.5919 22.669 18.6184 22.669H7.24236Z" fill="#3EA34B"/>
<path d="M15.6086 18.9034H10.2548C9.57068 18.9034 9.0166 18.3493 9.0166 17.6652C9.0166 16.9811 9.57068 16.427 10.2548 16.427H15.6086C16.2927 16.427 16.8468 16.9811 16.8468 17.6652C16.8468 18.3493 16.2927 18.9034 15.6086 18.9034Z" fill="#3EA34B"/>
<path d="M12.9313 43.9677C12.7641 43.9677 12.5939 43.9337 12.4298 43.8625C11.8045 43.5854 11.5212 42.8549 11.7983 42.2296L13.6153 38.1219H10.3434C9.92394 38.1219 9.5339 37.9099 9.30638 37.5585C9.07732 37.2072 9.04171 36.7645 9.21197 36.3822L11.7983 30.5347C12.0738 29.9094 12.8043 29.6261 13.4327 29.9032C14.058 30.1802 14.3412 30.9108 14.0642 31.5361L12.2471 35.6437H15.5191C15.9385 35.6437 16.3286 35.8558 16.5561 36.2071C16.7852 36.5585 16.8208 37.0011 16.6505 37.3835L14.0642 43.231C13.8599 43.6938 13.4064 43.9677 12.9313 43.9677Z" fill="#3EA34B"/>
</svg>
