<svg width="52" height="54" viewBox="0 0 52 54" fill="none" xmlns="http://www.w3.org/2000/svg">
<path d="M25.5125 6.82211C25.0379 6.82211 24.6582 6.44135 24.6582 5.96538V0.856731C24.6582 0.380769 25.0379 0 25.5125 0C25.9871 0 26.3668 0.380769 26.3668 0.856731V5.97596C26.3668 6.44135 25.9871 6.82211 25.5125 6.82211Z" fill="#2060F3"/>
<path d="M39.3396 12.5655C39.1181 12.5655 38.9071 12.4809 38.7384 12.3117C38.4114 11.9838 38.4114 11.4338 38.7384 11.1059L42.3454 7.48859C42.6724 7.1607 43.2208 7.1607 43.5478 7.48859C43.8747 7.81647 43.8747 8.36647 43.5478 8.69436L39.9407 12.3117C39.7825 12.4809 39.561 12.5655 39.3396 12.5655Z" fill="#2060F3"/>
<path d="M50.1719 26.4422H45.0672C44.5926 26.4422 44.2129 26.0615 44.2129 25.5855C44.2129 25.1095 44.5926 24.7288 45.0672 24.7288H50.1719C50.6465 24.7288 51.0262 25.1095 51.0262 25.5855C51.0262 26.0615 50.6465 26.4422 50.1719 26.4422Z" fill="#2060F3"/>
<path d="M5.94844 26.4422H0.854297C0.379688 26.4422 0 26.0615 0 25.5855C0 25.1095 0.379688 24.7288 0.854297 24.7288H5.95898C6.43359 24.7288 6.81328 25.1095 6.81328 25.5855C6.80273 26.0615 6.42305 26.4422 5.94844 26.4422Z" fill="#2060F3"/>
<path d="M11.6858 12.5654C11.4644 12.5654 11.2534 12.4808 11.0847 12.3116L7.47764 8.70486C7.15068 8.37697 7.15068 7.82697 7.47764 7.49909C7.80459 7.1712 8.35303 7.1712 8.67998 7.49909L12.287 11.1164C12.614 11.4443 12.614 11.9943 12.287 12.3222C12.1183 12.4808 11.8968 12.5654 11.6858 12.5654Z" fill="#2060F3"/>
<path d="M30.6178 43.4923C30.1432 43.4923 29.7635 43.1115 29.7635 42.6356C29.7635 40.8481 30.7549 39.1981 32.3475 38.3413C37.4416 35.5913 40.4158 30.0807 39.9201 24.2952C39.3295 17.4519 33.9717 11.9413 27.1689 11.1798C22.9924 10.7144 18.974 11.9942 15.8732 14.7759C12.8146 17.5259 11.0533 21.4606 11.0533 25.5856C11.0533 30.9375 13.9854 35.824 18.6998 38.3625C20.2818 39.2086 21.2627 40.8481 21.2627 42.6461C21.2627 43.1221 20.883 43.5029 20.4084 43.5029C19.9338 43.5029 19.5541 43.1221 19.5541 42.6461C19.5541 41.4827 18.9213 40.4144 17.8877 39.8644C12.6143 37.0404 9.34473 31.5615 9.34473 25.5856C9.34473 20.9846 11.3064 16.5846 14.7342 13.5067C18.2041 10.3971 22.6865 8.95863 27.3588 9.48748C34.9631 10.3336 40.9537 16.5 41.6076 24.1577C42.1666 30.6202 38.8443 36.7865 33.149 39.8538C32.1049 40.4144 31.4615 41.4827 31.4615 42.6461C31.4615 43.1115 31.0818 43.4923 30.6178 43.4923Z" fill="#2060F3"/>
<path d="M29.7631 46.9088H21.2623C19.8596 46.9088 18.71 45.7559 18.71 44.3492C18.71 42.9424 19.8596 41.7896 21.2623 41.7896H29.7631C31.1658 41.7896 32.3154 42.9424 32.3154 44.3492C32.3154 45.7559 31.1764 46.9088 29.7631 46.9088ZM21.2623 43.4924C20.7982 43.4924 20.408 43.8732 20.408 44.3492C20.408 44.8251 20.7877 45.2059 21.2623 45.2059H29.7631C30.2271 45.2059 30.6174 44.8251 30.6174 44.3492C30.6174 43.8732 30.2377 43.4924 29.7631 43.4924H21.2623Z" fill="#2060F3"/>
<path d="M29.7631 50.3143H21.2623C19.8596 50.3143 18.71 49.1614 18.71 47.7547C18.71 46.348 19.8596 45.1951 21.2623 45.1951H29.7631C31.1658 45.1951 32.3154 46.348 32.3154 47.7547C32.3154 49.172 31.1764 50.3143 29.7631 50.3143ZM21.2623 46.9085C20.7982 46.9085 20.408 47.2893 20.408 47.7653C20.408 48.2306 20.7877 48.622 21.2623 48.622H29.7631C30.2271 48.622 30.6174 48.2412 30.6174 47.7653C30.6174 47.2999 30.2377 46.9085 29.7631 46.9085H21.2623Z" fill="#2060F3"/>
<path d="M26.3674 53.7308H24.6693C22.3279 53.7308 20.4189 51.8164 20.4189 49.4683C20.4189 48.9923 20.7986 48.6116 21.2732 48.6116H29.774C30.2486 48.6116 30.6283 48.9923 30.6283 49.4683C30.6178 51.8164 28.7088 53.7308 26.3674 53.7308ZM22.2541 50.3145C22.6021 51.3087 23.5514 52.0173 24.6588 52.0173H26.3568C27.4643 52.0173 28.4135 51.3087 28.7615 50.3145H22.2541Z" fill="#2060F3"/>
<path d="M24.2367 29.8481C24.2262 29.8481 24.2156 29.8481 24.2051 29.8481L23.7094 29.8376C18.9949 29.6895 15.0399 25.7231 14.8922 20.9953L14.8817 20.4981C14.8711 20.2655 14.966 20.0328 15.1348 19.8635C15.3035 19.6943 15.5039 19.5991 15.7676 19.6097L16.2633 19.6308C20.9672 19.7789 24.9328 23.7453 25.0805 28.4731L25.091 28.9703C25.1016 29.203 25.0067 29.4356 24.8379 29.6049C24.6797 29.7635 24.4582 29.8481 24.2367 29.8481ZM16.6219 21.3655C16.9488 24.877 19.8387 27.7751 23.3402 28.103C23.0238 24.5914 20.1235 21.6933 16.6219 21.3655Z" fill="#2060F3"/>
<path d="M25.6817 35.4751C25.2282 35.4751 24.8485 35.1155 24.838 34.6607C24.7114 31.3924 23.1294 28.3992 20.5032 26.453C20.1235 26.178 20.0497 25.6386 20.3239 25.2578C20.5981 24.8771 21.136 24.803 21.5157 25.078C24.5637 27.3309 26.3989 30.8001 26.5465 34.5867C26.5676 35.0521 26.1985 35.454 25.7344 35.4751C25.7133 35.4751 25.7028 35.4751 25.6817 35.4751Z" fill="#2060F3"/>
<path d="M26.7889 31.551C26.5674 31.551 26.3459 31.4664 26.1877 31.2972C26.0189 31.128 25.9346 30.9058 25.9346 30.6626L25.9451 30.1655C26.0928 25.4376 30.0479 21.4712 34.7623 21.3232L35.258 21.302C35.5006 21.2808 35.7221 21.3866 35.8908 21.5558C36.0596 21.7251 36.1439 21.9472 36.1439 22.1905L36.1334 22.6876C35.9857 27.4155 32.0307 31.3818 27.3162 31.5299L26.8205 31.5405C26.81 31.551 26.7994 31.551 26.7889 31.551ZM34.4037 23.0683C30.9021 23.3962 28.0123 26.2943 27.6854 29.8058C31.1764 29.478 34.0768 26.5799 34.4037 23.0683Z" fill="#2060F3"/>
<path d="M25.6393 34.9674C25.5761 34.9674 25.5128 34.9568 25.439 34.9462C24.9854 34.8404 24.7007 34.3751 24.8061 33.9203C25.4811 31.0645 27.1581 28.5366 29.51 26.7914C29.8897 26.5164 30.4171 26.5904 30.7018 26.9712C30.9761 27.352 30.9022 27.8808 30.5225 28.1664C28.487 29.6683 27.0526 31.8578 26.462 34.3222C26.3776 34.7029 26.0296 34.9674 25.6393 34.9674Z" fill="#2060F3"/>
<path d="M28.0654 34.9674H22.9607C22.4861 34.9674 22.1064 34.5866 22.1064 34.1106C22.1064 33.6347 22.4861 33.2539 22.9607 33.2539H28.0654C28.54 33.2539 28.9197 33.6347 28.9197 34.1106C28.9197 34.5866 28.5295 34.9674 28.0654 34.9674Z" fill="#2060F3"/>
</svg>
