<svg width="52" height="51" viewBox="0 0 52 51" fill="none" xmlns="http://www.w3.org/2000/svg">
<path d="M40.6484 15.5264V11.6514L36.6299 17.6791H40.2019V21.9847L44.6669 15.5264H40.6484Z" stroke="#E8B213" stroke-width="1.49259"/>
<path d="M13.0928 49.5403L15.3891 25.4292H19.4076L21.7039 46.0959V42.0773H26.8706C27.3125 42.0773 28.1963 41.6181 28.1963 39.7811C28.1963 37.944 28.8433 36.7193 29.1668 36.3366C29.9323 35.3798 32.0372 34.0403 34.3335 36.3366C34.5249 36.7193 34.9076 37.944 34.9076 39.7811C34.9076 41.6181 36.8212 42.0773 37.778 42.0773C38.7347 42.0773 40.6483 41.5033 40.6483 39.207V27.1514" stroke="#E8B213" stroke-width="1.49259"/>
<circle cx="40.6486" cy="16.8181" r="10.1611" stroke="#E8B213" stroke-width="1.49259"/>
<path d="M6.2041 49.5403H45.2411" stroke="#E8B213" stroke-width="1.14815"/>
<path d="M19.9824 49.5403C20.3651 47.6267 22.0491 43.7996 25.7232 43.7996C29.3972 43.7996 31.8466 47.6267 32.6121 49.5403" stroke="#E8B213" stroke-width="1.14815"/>
<path d="M1.61133 7.05884H9.64837" stroke="#E8B213" stroke-width="2.2963"/>
<path d="M7.92676 10.5034L13.6675 10.5034" stroke="#E8B213" stroke-width="2.2963"/>
<path d="M3.33398 10.5034L6.77843 10.5034" stroke="#E8B213" stroke-width="2.2963"/>
<path d="M12.5188 20.8366C12.5188 18.4946 14.2718 16.5621 16.5373 16.2796M12.5188 20.8366C12.5188 21.9227 12.8958 22.9208 13.5261 23.707M12.5188 20.8366C11.562 20.4539 8.6151 20.2626 4.48176 22.5589C0.348429 24.8552 0.463244 29.2564 1.03732 31.17L13.5261 23.707M16.5373 16.2796C16.7254 16.2561 16.917 16.244 17.1114 16.244C17.9479 16.244 18.7322 16.4677 19.4077 16.8584M16.5373 16.2796V1.31812C18.4509 2.46626 22.2781 6.02552 22.2781 11.0774C21.8953 12.8265 20.7855 16.4315 19.4077 16.8584M19.4077 16.8584C20.7804 17.6525 21.704 19.1367 21.704 20.8366C21.704 21.2331 21.6537 21.6178 21.5593 21.9848M21.5593 21.9848L34.3336 30.5959C32.9941 31.744 29.1669 33.3514 24.5744 30.5959C19.9818 27.8403 19.599 25.3318 19.9818 24.4219M21.5593 21.9848C21.3082 22.9603 20.7447 23.8104 19.9818 24.4219M19.9818 24.4219C19.1955 25.0522 18.1975 25.4292 17.1114 25.4292C15.6611 25.4292 14.3677 24.7569 13.5261 23.707" stroke="#E8B213" stroke-width="1.49259"/>
<circle cx="17.112" cy="20.8366" r="1.14815" fill="#E8B213"/>
</svg>
