<svg width="33" height="33" viewBox="0 0 33 33" fill="none" xmlns="http://www.w3.org/2000/svg">
<path d="M1.42871 31.4286V28.0953C1.42871 26.3271 2.13109 24.6315 3.38133 23.3812C4.63157 22.131 6.32727 21.4286 8.09538 21.4286H14.762C16.5302 21.4286 18.2258 22.131 19.4761 23.3812C20.7263 24.6315 21.4287 26.3271 21.4287 28.0953V31.4286M23.0954 1.64526C24.5294 2.01242 25.8004 2.84642 26.7081 4.01577C27.6158 5.18512 28.1084 6.62331 28.1084 8.10359C28.1084 9.58387 27.6158 11.0221 26.7081 12.1914C25.8004 13.3608 24.5294 14.1948 23.0954 14.5619M31.4287 31.4286V28.0953C31.4202 26.6239 30.9252 25.1966 30.0208 24.0359C29.1164 22.8753 27.8534 22.0464 26.4287 21.6786M4.76204 8.09526C4.76204 9.86337 5.46442 11.5591 6.71467 12.8093C7.96491 14.0595 9.6606 14.7619 11.4287 14.7619C13.1968 14.7619 14.8925 14.0595 16.1428 12.8093C17.393 11.5591 18.0954 9.86337 18.0954 8.09526C18.0954 6.32715 17.393 4.63145 16.1428 3.38121C14.8925 2.13097 13.1968 1.42859 11.4287 1.42859C9.6606 1.42859 7.96491 2.13097 6.71467 3.38121C5.46442 4.63145 4.76204 6.32715 4.76204 8.09526Z" stroke="#00A73D" stroke-width="2.85714" stroke-linecap="round" stroke-linejoin="round"/>
</svg>
