<svg width="30" height="20" viewBox="0 0 30 20" fill="none" xmlns="http://www.w3.org/2000/svg">
<path d="M13.4092 13.3442C14.6585 12.4779 15.607 11.2157 16.1144 9.7444C16.6218 8.27308 16.6612 6.67072 16.2267 5.17429C15.7922 3.67785 14.907 2.36678 13.7019 1.43495C12.4968 0.503115 11.0358 0 9.53495 0C8.03411 0 6.57311 0.503115 5.36801 1.43495C4.1629 2.36678 3.27766 3.67785 2.8432 5.17429C2.40874 6.67072 2.44813 8.27308 2.95553 9.7444C3.46294 11.2157 4.41143 12.4779 5.66073 13.3442C3.40086 14.2119 1.47087 15.8174 0.158759 17.9212C0.0897986 18.028 0.0418987 18.148 0.0178435 18.2742C-0.00621166 18.4004 -0.00594234 18.5303 0.0186358 18.6564C0.043214 18.7825 0.0916108 18.9023 0.161013 19.0088C0.230415 19.1152 0.319438 19.2062 0.422908 19.2765C0.526377 19.3468 0.642229 19.395 0.763729 19.4183C0.885229 19.4415 1.00995 19.4394 1.13065 19.412C1.25135 19.3846 1.36562 19.3324 1.46681 19.2586C1.568 19.1848 1.6541 19.0908 1.7201 18.982C2.56647 17.626 3.72462 16.5117 5.08937 15.7404C6.45412 14.969 7.98224 14.565 9.53495 14.565C11.0877 14.565 12.6158 14.969 13.9805 15.7404C15.3453 16.5117 16.5034 17.626 17.3498 18.982C17.4865 19.1937 17.6977 19.3408 17.9377 19.3916C18.1777 19.4423 18.4273 19.3926 18.6324 19.2533C18.8376 19.1139 18.9818 18.896 19.0339 18.6468C19.0861 18.3975 19.042 18.1369 18.9111 17.9212C17.599 15.8174 15.669 14.2119 13.4092 13.3442ZM4.40816 7.28532C4.40816 6.22909 4.70885 5.19658 5.27218 4.31835C5.83552 3.44013 6.63622 2.75564 7.57301 2.35143C8.50981 1.94723 9.54064 1.84147 10.5351 2.04753C11.5296 2.25359 12.4431 2.76222 13.1601 3.50909C13.8771 4.25595 14.3654 5.20752 14.5632 6.24346C14.761 7.2794 14.6595 8.35317 14.2715 9.329C13.8834 10.3048 13.2263 11.1389 12.3832 11.7257C11.5401 12.3125 10.5489 12.6257 9.53495 12.6257C8.17572 12.6241 6.87259 12.061 5.91147 11.0598C4.95034 10.0586 4.40971 8.70119 4.40816 7.28532ZM28.8932 19.2648C28.6862 19.4055 28.434 19.4547 28.1921 19.4016C27.9502 19.3486 27.7384 19.1977 27.6034 18.982C26.758 17.6252 25.6 16.5104 24.235 15.7394C22.87 14.9683 21.3413 14.5655 19.7885 14.5677C19.5413 14.5677 19.3042 14.4654 19.1294 14.2833C18.9546 14.1012 18.8564 13.8542 18.8564 13.5967C18.8564 13.3392 18.9546 13.0922 19.1294 12.9101C19.3042 12.728 19.5413 12.6257 19.7885 12.6257C20.5435 12.625 21.289 12.4505 21.9718 12.1149C22.6546 11.7792 23.2578 11.2906 23.7383 10.684C24.2188 10.0773 24.5647 9.36763 24.7513 8.60559C24.938 7.84354 24.9608 7.04795 24.818 6.27568C24.6753 5.5034 24.3706 4.7735 23.9256 4.13812C23.4807 3.50274 22.9065 2.97757 22.2441 2.60013C21.5818 2.22269 20.8476 2.0023 20.0939 1.95471C19.3403 1.90712 18.5859 2.03349 17.8846 2.32482C17.7703 2.3763 17.6472 2.4034 17.5226 2.4045C17.3981 2.40559 17.2745 2.38067 17.1594 2.3312C17.0442 2.28173 16.9397 2.20872 16.8521 2.11648C16.7645 2.02424 16.6955 1.91464 16.6493 1.79416C16.603 1.67368 16.5804 1.54476 16.5828 1.41503C16.5851 1.28529 16.6125 1.15737 16.6631 1.03881C16.7137 0.920259 16.7867 0.813481 16.8776 0.724789C16.9685 0.636096 17.0756 0.567288 17.1925 0.52243C18.7975 -0.14433 20.5827 -0.168324 22.2036 0.455077C23.8246 1.07848 25.1665 2.3051 25.9705 3.89831C26.7745 5.49152 26.9835 7.33844 26.5574 9.08275C26.1312 10.8271 25.1 12.3452 23.6627 13.3442C25.9226 14.2119 27.8526 15.8174 29.1647 17.9212C29.2997 18.1369 29.347 18.3996 29.2961 18.6516C29.2452 18.9035 29.1003 19.1241 28.8932 19.2648Z" fill="#66DB7E"/>
</svg>
